<?xml version="1.0" encoding="iso-8859-1"?>
<!-- Generator: Adobe Illustrator 22.0.0, SVG Export Plug-In . SVG Version: 6.00 Build 0)  -->
<svg version="1.1" id="Layer_1" xmlns="http://www.w3.org/2000/svg" xmlns:xlink="http://www.w3.org/1999/xlink" x="0px" y="0px"
	 viewBox="0 0 1366 768" style="enable-background:new 0 0 1366 768;" xml:space="preserve">
<g>
	<path d="M857.984,410.164c-0.386-1.151-0.913-2.091-1.592-2.826l-0.141,0.16c-0.187,0.211-0.41,0.467-0.644,0.78
		c-0.246,0.32-0.457,0.582-0.656,0.786c-3.068,4.93-5.409,10.454-7.048,16.58c-1.628,6.132-2.822,12.129-3.594,17.993
		c-0.187,0.838-0.316,1.624-0.363,2.359c-0.047,0.735-0.117,1.515-0.211,2.353c5.561-6.388,9.788-13.613,12.656-21.682
		c0.773-2.097,1.487-4.297,2.166-6.599c0.667-2.308,0.761-4.61,0.281-6.918C858.651,412.313,858.358,411.322,857.984,410.164z"/>
	<path d="M685.591,445.326c-0.425-0.597-1.054-1.368-1.887-2.328c-0.833-0.953-1.768-1.754-2.822-2.408
		c-1.037-0.655-2.057-1.011-3.026-1.077c-0.969-0.058-1.87,0.451-2.72,1.521c2.227,0,4.453,0.837,6.697,2.503
		c0.408,0.357,0.51,0.655,0.306,0.895c-0.204,0.24-0.561,0.422-1.037,0.538c-0.493,0.116-1.02,0.175-1.581,0.175
		c-0.544,0-0.901-0.058-1.037-0.175c-1.819-0.357-3.416-0.357-4.81,0c-0.272,1.31-0.34,2.619-0.204,3.929
		c0.136,1.317,0.493,2.568,1.037,3.755c1.122,2.503,2.72,4.984,4.81,7.422c2.091,2.445,4.589,4.147,7.513,5.101
		c0.289,0.116,0.459,0.175,0.527,0.175c0.068,0,0.238,0.066,0.527,0.182c0.272-0.837,0.442-1.637,0.527-2.416
		c0.068-0.771,0.17-1.579,0.306-2.416c0.136-2.503,0.034-5.122-0.306-7.866C688.056,450.092,687.121,447.589,685.591,445.326z"/>
	<path d="M716.917,433.698c0-0.233-0.068-0.648-0.204-1.252c-0.153-0.589-0.255-1.157-0.323-1.695
		c-0.068-0.538-0.204-0.982-0.408-1.339c-0.221-0.364-0.391-0.364-0.527,0c-1.53,2.139-2.482,4.678-2.822,7.596
		c-0.34,2.925-0.527,5.632-0.527,8.135c0,1.193-0.034,2.357-0.102,3.485c-0.068,1.135,0.102,2.299,0.527,3.493
		c0.697-1.79,1.292-3.609,1.768-5.457c0.493-1.848,0.952-3.667,1.36-5.45c0.289-1.317,0.561-2.568,0.833-3.762
		C716.781,436.267,716.917,435.015,716.917,433.698z"/>
	<path d="M806.614,618.769c-3.443,0.231-6.498,1.291-9.133,3.18c-2.651,1.889-4.704,4.118-6.158,6.672
		c-0.663,1.223-1.229,2.677-1.697,4.349c-0.469,1.672-0.162,3.112,0.889,4.335c1.859,2.011,4.138,2.976,6.853,2.922
		c2.716-0.054,4.866-1.033,6.465-2.922c1.455-1.672,2.651-3.424,3.572-5.259c0.921-1.834,1.713-3.751,2.376-5.762
		c0.275-1.223,0.566-2.365,0.905-3.424c0.323-1.06,0.63-2.188,0.889-3.425c-0.663-0.217-1.422-0.38-2.279-0.489
		C808.424,618.824,807.536,618.769,806.614,618.769z"/>
	<path d="M818.563,468.778c-2.213-0.94-4.098-2.436-5.69-4.476c-1.581-2.046-2.752-4.322-3.524-6.835
		c-0.48,2.724-0.691,5.448-0.644,8.172c0.047,2.724,0.269,4.821,0.644,6.285c0.293,1.253,0.703,2.436,1.229,3.536
		s1.194,1.912,2.014,2.436c0.808,0.524,1.698,0.703,2.658,0.55c0.96-0.16,2.014-0.812,3.173-1.969
		c1.054-0.94,1.908-1.989,2.587-3.139c0.667-1.151,1.241-2.302,1.721-3.459c-0.761-0.102-1.464-0.256-2.084-0.467
		C820.026,469.2,819.324,468.989,818.563,468.778z"/>
	<path d="M842.728,468.542c0,0.582,0.047,1.132,0.141,1.65c0.094,4.297,0.269,8.568,0.503,12.807
		c0.246,4.246,0.597,8.517,1.077,12.807c0.094,1.26,0.246,2.621,0.433,4.086c0.199,1.471,0.41,2.986,0.656,4.559
		c0.234,1.573,0.574,3.088,1.007,4.559c0.422,1.464,0.984,2.724,1.651,3.772c1.147-1.471,2.108-3.095,2.88-4.872
		c1.054-3.044,1.674-6.132,1.862-9.271c0.199-3.146-0.047-6.285-0.714-9.431c-0.866-4.086-2.131-7.961-3.817-11.631
		c-1.674-3.664-3.571-7.276-5.678-10.838C842.728,467.365,842.728,467.973,842.728,468.542z"/>
	<path d="M822.731,449.922c-0.187-0.416-0.55-1.1-1.077-2.04c-0.527-0.946-1.101-1.81-1.721-2.596
		c-0.632-0.786-1.276-1.387-1.944-1.81c-0.679-0.416-1.3-0.256-1.873,0.473c-0.386,0.422-0.621,0.786-0.714,1.1
		c1.522,0.211,2.962,0.946,4.309,2.2c0.293,0.313,0.363,0.55,0.223,0.71c-0.152,0.153-0.41,0.288-0.796,0.39
		c-0.386,0.109-0.773,0.185-1.147,0.237c-0.386,0.057-0.632,0.025-0.726-0.077c-1.054-0.416-2.061-0.473-3.021-0.16
		c-0.094,1.362-0.094,2.673,0,3.932c0.094,1.151,0.363,2.436,0.796,3.849c0.433,1.413,0.96,2.801,1.581,4.163
		c0.62,1.362,1.346,2.622,2.154,3.772c0.82,1.151,1.756,1.989,2.81,2.513c0.574,0.211,1.241,0.422,2.014,0.627
		c0.187-0.518,0.304-1.1,0.363-1.726c0.047-0.627,0.117-1.253,0.211-1.886c0.187-2.2,0.234-4.501,0.14-6.912
		C824.218,454.27,823.691,452.02,822.731,449.922z"/>
	<path d="M658.637,561.327c0-0.326-0.032-0.775-0.097-1.332c-0.065-0.557-0.162-1.087-0.291-1.59
		c-0.129-0.503-0.307-0.91-0.501-1.25c-0.194-0.34-0.372-0.34-0.501,0c-1.455,2.12-2.344,4.512-2.683,7.175
		c-0.323,2.677-0.42,5.178-0.291,7.515c0,1.114-0.032,2.229-0.097,3.343c-0.065,1.114,0.032,2.174,0.291,3.18
		c0.663-1.672,1.261-3.37,1.794-5.096c0.533-1.726,0.986-3.424,1.39-5.096c0.259-1.114,0.501-2.256,0.695-3.424
		C658.54,563.583,658.637,562.441,658.637,561.327z"/>
	<path d="M626.798,420.288c3.399-5.246,5.728-10.609,6.986-16.095c0.136-0.473,0.289-1.812,0.425-4.024
		c0.136-2.205,0.034-4.38-0.323-6.527c-0.34-2.146-0.969-3.842-1.87-5.093c-0.918-1.251-2.414-1.164-4.487,0.269
		c-1.955,1.31-3.45,2.918-4.504,4.824c-1.037,1.914-1.904,3.878-2.601,5.901c-1.955,5.61-3.383,11.3-4.283,17.077
		c-0.918,5.785-1.428,11.657-1.564,17.616C619.303,430.184,623.382,425.534,626.798,420.288z"/>
	<path d="M1005.254,148.934c-2.91-2.91-10.05-10.575-13.229-15.87c-3.166-5.294-8.46-29.907-14.28-37.573
		c-5.833-7.679-27.523-31.497-42.342-35.727c-14.819-4.23-17.459-4.23-19.588-8.204c-2.115-3.961,12.448-36.778,10.589-41.008
		c-1.846-4.23-7.665,0-10.845,2.64c-3.179,2.654-9.524,11.114-11.384,10.063c-1.846-1.064-1.846-7.948-5.294-8.204
		c-3.435-0.269-23.805,14.28-32.009,20.895c-8.204,6.615-14.805,12.569-32.548,25.933c-17.742,13.377-40.065,27.981-58.75,70.511
		c-19.494,44.362-18.537,103.8-51.745,112.246c-33.208,8.433-78.176-0.62-125.449,27.967
		c-47.272,28.574-87.499,76.91-107.248,184.158c-15.385,83.511-11.518,130.649-11.384,152.432
		c-47.825-41.304-73.919-102.87-65.796-143.73c11.774-59.195,82.662-147.919,99.745-208.448
		c17.069-60.528,19.211-144.376-47.057-175.334c-56.069-26.189-109.161-4.796-131.619,30.257
		c-22.457,35.067-25.017,79.173-2.25,111.465c22.767,32.292,64.247,43.069,73.017,25.866c17.217-33.76-28.668-38.852-38.772-47.798
		c-10.104-8.932-21.38-40.968,9.08-66.24c30.473-25.286,74.674-16.26,90.57,17.163c15.91,33.423,4.297,104.056-34.69,157.862
		c-140.591,194.02-45.076,318.121,31.537,358.792c5.699,3.018,11.411,5.793,17.136,8.326c2.438,6.722,5.847,12.556,10.481,16.476
		c18.348,15.519,23.279,13.404,29.638,19.049c6.345,5.645-2.829,9.174,27.509,10.589c30.352,1.401,76.923,9.875,97.374,9.875
		c20.464,0,28.937-5.645,37.397-2.115c8.474,3.53,35.282,9.875,48.687,4.944c13.418-4.944,19.763-14.118,16.584-27.873
		c-3.166-13.768-18.524-23.293-18.524-23.293l6.359-5.294c0,0,31.227-1.59,43.392-2.115c12.178-0.525,25.933-6.871,28.048-4.756
		s3.705,23.279,12.178,32.278c8.46,8.999,13.755,12.165,24.869,13.229c11.114,1.064,47.097-1.59,54.506-5.294
		c7.409-3.705,8.999-15.87,5.82-22.754c-3.179-6.884-9.525-11.64-9.525-11.64s13.054,1.765,19.763-9.875
		c6.695-11.653,5.645-22.228-0.714-27.523c-6.345-5.294-25.758-8.474-28.924-11.64c-3.179-3.179-5.995-41.291-9.525-55.396
		c-3.53-14.118-9.888-40.577-10.239-52.567c-0.35-12.003,23.993-65.971,40.227-83.269c16.22-17.284,45.858-82.204,44.457-105.484
		c-1.415-23.279-16.934-50.452-17.298-62.805c-0.35-12.34-2.115-34.919,6.709-44.093c8.824-9.174,41.803-10.683,49.212-19.143
		c7.409-8.474,3.974-12.178,6.089-13.755c2.115-1.59,5.55-3.974,7.935-8.204c2.385-4.244,0.269-8.999,2.654-10.858
		c2.371-1.846,5.281-5.82,5.025-11.37C1010.548,157.138,1008.164,151.844,1005.254,148.934z M872.948,184.634
		c1.01-0.593,2.128-0.162,2.762,0.727c0.539,0.741,1.132,1.455,1.724,2.156c0.377-1.105,0.849-2.169,1.441-3.166
		c0.566-0.93,1.805-1.28,2.775-0.727c0.93,0.552,1.28,1.832,0.714,2.775c-0.485,0.808-0.781,1.415-1.051,2.25
		c-0.31,0.943-1.132,1.509-2.075,1.468c0.108,1.63-1.994,3.139-3.422,1.63c-1.293-1.361-2.492-2.829-3.597-4.351
		C871.574,186.507,872.073,185.146,872.948,184.634z M897.871,177.413c-2.182,0.795-4.257,1.819-6.251,3.004
		c-2.236,1.334-4.271-2.156-2.034-3.489c2.29-1.361,4.702-2.492,7.207-3.422C899.245,172.604,900.283,176.511,897.871,177.413z
		 M904.364,223.325c1.01-0.418,2.223,0.458,2.479,1.415c0.323,1.145-0.404,2.061-1.414,2.479c-1.792,0.741-3.57,1.495-5.362,2.236
		c-1.024,0.418-2.236-0.458-2.492-1.415c-0.31-1.145,0.404-2.075,1.415-2.492C900.781,224.807,902.573,224.066,904.364,223.325z
		 M889.29,232.647c0.512,0.889,0.256,2.304-0.728,2.762c-1.724,0.822-3.327,1.792-4.85,2.937c-0.876,0.674-2.263,0.135-2.762-0.714
		c-0.593-1.024-0.148-2.115,0.727-2.775c1.509-1.145,3.125-2.115,4.836-2.937C887.511,231.462,888.697,231.637,889.29,232.647z
		 M871.157,244.987c1.01-1.509,2.129-2.937,3.354-4.271c0.754-0.808,2.115-0.754,2.869,0c0.781,0.795,0.727,2.061,0,2.856
		c-1.01,1.091-1.913,2.236-2.735,3.462c-0.606,0.903-1.765,1.293-2.762,0.714C870.982,247.224,870.55,245.903,871.157,244.987z
		 M868.247,253.501c1.118,0.256,1.63,1.455,1.415,2.492c-0.094,0.498-0.202,1.01-0.31,1.522c-0.215,1.105-1.468,1.63-2.479,1.401
		c-1.118-0.243-1.63-1.441-1.415-2.479c0.108-0.512,0.202-1.01,0.31-1.522C865.997,253.811,867.25,253.272,868.247,253.501z
		 M864.569,234.425c-0.876,0.512-2.317,0.283-2.762-0.714c-0.687-1.549-1.441-3.045-2.277-4.513
		c-1.266-2.277,2.223-4.311,3.503-2.048c0.822,1.468,1.576,2.977,2.263,4.513C865.741,232.674,865.593,233.833,864.569,234.425z
		 M865.781,179.501c-0.269,0.983-1.468,1.805-2.492,1.415c-1.347-0.498-2.694-1.01-4.042-1.522
		c-1.024-0.377-1.711-1.347-1.401-2.479c0.269-0.983,1.455-1.792,2.479-1.415c1.347,0.512,2.694,1.01,4.042,1.522
		C865.391,177.4,866.091,178.37,865.781,179.501z M857.254,221.169c-1.024,0.593-2.102,0.135-2.762-0.727
		c-1.091-1.415-2.29-2.735-3.543-3.988c-1.832-1.846,1.024-4.702,2.856-2.856c1.509,1.509,2.87,3.112,4.176,4.809
		C858.641,219.27,858.103,220.671,857.254,221.169z M847.096,84.526c3.22,0,6.332,0.445,9.322,1.186
		c-4.284,2.438-8.258,5.658-11.747,9.888c-13.418,16.301-16.382,39.89,1.59,54.466c4.594,3.705,9.659,6.48,15.034,8.406
		c-4.392,1.751-9.174,2.735-14.199,2.735c-21.178,0-38.341-17.163-38.341-38.341C808.756,101.689,825.919,84.526,847.096,84.526z
		 M845.628,176.767c-1.684,0.121-3.354,0.337-5.011,0.633c-1.078,0.202-2.182-0.283-2.492-1.401
		c-0.269-0.997,0.337-2.29,1.415-2.492c2.021-0.364,4.055-0.633,6.089-0.781C848.228,172.55,848.214,176.591,845.628,176.767z
		 M842.772,210.513c-1.536-0.822-2.964-1.819-4.324-2.937c-0.849-0.687-0.714-2.142,0-2.856c0.822-0.822,2.007-0.687,2.856,0
		c1.091,0.889,2.277,1.644,3.516,2.304C847.11,208.263,845.062,211.753,842.772,210.513z M826.66,193.929
		c0.728-0.727,2.169-0.849,2.856,0c0.849,1.01,1.684,2.021,2.519,3.031c0.701,0.849,0.835,2.034,0,2.856
		c-0.714,0.728-2.156,0.849-2.856,0c-0.835-1.01-1.67-2.021-2.519-3.031C825.959,195.937,825.824,194.765,826.66,193.929z
		 M825.245,185.2c0.229-1.657,0.741-3.193,1.428-4.715c0.458-0.997,1.9-1.226,2.762-0.727c1.01,0.593,1.186,1.778,0.728,2.762
		c-0.539,1.186-0.849,2.479-1.024,3.759c-0.148,1.091-1.536,1.67-2.492,1.415C825.501,187.369,825.083,186.278,825.245,185.2z
		 M784.965,220.011c0.027,0,2.775-0.242,6.803-0.418c2.142-0.094,4.553-0.175,6.951-0.229c0.445,0,0.889-0.013,1.347-0.013
		c0.835-0.027,1.711-0.04,2.587-0.04l1.266-0.013c-0.377-0.364-0.741-0.741-1.091-1.118c-0.202-0.215-0.418-0.431-0.62-0.633
		c-1.118-1.172-2.223-2.344-3.179-3.408c-1.832-1.98-3.018-3.395-3.031-3.408c-0.189-0.242-0.175-0.579,0.04-0.795
		c0.216-0.216,0.552-0.229,0.795-0.027c0.013,0.013,1.428,1.186,3.408,3.018c1.051,0.956,2.236,2.061,3.408,3.179
		c0.216,0.216,0.431,0.431,0.66,0.647c0.364,0.35,0.727,0.701,1.091,1.064l0.013-1.266c0-0.862,0.013-1.711,0.04-2.546
		c0-0.458,0.013-0.916,0.013-1.374c0.054-2.452,0.135-4.863,0.229-6.965c0.175-4.028,0.418-6.776,0.418-6.803
		c0.027-0.296,0.283-0.525,0.579-0.525c0.31,0,0.566,0.229,0.593,0.525c0,0.027,0.243,2.775,0.404,6.803
		c0.108,2.061,0.175,4.473,0.229,6.965c0.013,0.445,0.013,0.889,0.027,1.347c0.013,0.835,0.04,1.697,0.04,2.573v1.266
		c0.377-0.377,0.754-0.741,1.132-1.091c0.216-0.202,0.418-0.404,0.633-0.606c1.172-1.132,2.344-2.236,3.395-3.193
		c1.994-1.832,3.408-3.004,3.422-3.018c0.229-0.202,0.579-0.189,0.781,0.027c0.216,0.216,0.229,0.566,0.04,0.795
		c-0.013,0.013-1.199,1.428-3.018,3.408c-0.956,1.051-2.061,2.236-3.193,3.408c-0.216,0.215-0.418,0.431-0.633,0.66
		c-0.35,0.364-0.701,0.727-1.064,1.091l1.266,0.013c0.849,0,1.697,0.013,2.519,0.04c0.472,0,0.943,0.013,1.401,0.027
		c2.492,0.04,4.904,0.121,6.965,0.216c4.028,0.175,6.776,0.418,6.803,0.418c0.296,0.027,0.525,0.283,0.525,0.579
		c0,0.162-0.067,0.31-0.175,0.418c-0.094,0.094-0.216,0.162-0.35,0.175c-0.027,0-2.775,0.242-6.803,0.418
		c-2.075,0.094-4.473,0.162-6.965,0.216c-0.431,0.013-0.876,0.013-1.307,0.027c-0.849,0.013-1.738,0.04-2.627,0.04l-1.253,0.013
		c0.364,0.364,0.714,0.728,1.064,1.091c0.216,0.216,0.418,0.445,0.633,0.66c1.145,1.186,2.25,2.371,3.193,3.395
		c1.819,1.994,3.004,3.408,3.018,3.422c0.189,0.229,0.175,0.579-0.04,0.795c-0.202,0.202-0.552,0.229-0.781,0.027
		c-0.013-0.013-1.428-1.199-3.422-3.018c-1.037-0.943-2.209-2.048-3.395-3.193c-0.216-0.202-0.431-0.404-0.647-0.62
		c-0.364-0.35-0.741-0.714-1.118-1.078v1.266c0,0.862-0.027,1.724-0.04,2.56c-0.013,0.458-0.013,0.916-0.027,1.361
		c-0.04,2.452-0.121,4.863-0.216,6.965c-0.175,4.028-0.418,6.776-0.431,6.803c-0.027,0.296-0.269,0.525-0.579,0.525
		c-0.296,0-0.552-0.229-0.579-0.525c0-0.027-0.242-2.775-0.418-6.803c-0.094-2.128-0.175-4.54-0.229-6.965
		c0-0.445-0.013-0.889-0.027-1.334c-0.013-0.849-0.027-1.711-0.027-2.587l-0.013-1.266c-0.377,0.377-0.754,0.727-1.118,1.091
		c-0.216,0.202-0.431,0.404-0.633,0.606c-1.186,1.132-2.358,2.236-3.408,3.193c-1.98,1.832-3.395,3.004-3.408,3.018
		c-0.243,0.202-0.579,0.175-0.795-0.027c-0.216-0.215-0.229-0.566-0.04-0.795c0.013-0.013,1.199-1.428,3.031-3.422
		c0.943-1.037,2.048-2.209,3.179-3.395c0.229-0.229,0.444-0.458,0.674-0.7c0.337-0.35,0.687-0.701,1.024-1.051l-1.253-0.013
		c-0.862,0-1.711-0.013-2.533-0.04c-0.472,0-0.93-0.013-1.388-0.027c-2.479-0.04-4.877-0.121-6.965-0.216
		c-4.028-0.175-6.776-0.418-6.803-0.418c-0.296-0.027-0.525-0.283-0.525-0.593C784.439,220.294,784.668,220.038,784.965,220.011z
		 M732.64,303.751c1.239-5.523,3.557-10.737,6.965-15.668c2.479-3.637,5.591-7.046,9.336-10.185
		c3.732-3.152,8.15-5.456,13.229-6.911c3.058-0.822,6.224-1.253,9.498-1.293c3.287-0.054,6.372,0.364,9.255,1.226
		c2.896,0.876,5.429,2.196,7.638,3.961c2.209,1.792,3.813,4.095,4.836,6.911c0.458,1.549,0.862,3.489,1.186,5.82
		c0.35,2.317,0.35,4.675,0,7.046c-0.323,2.371-1.078,4.553-2.209,6.561c-1.132,2.007-2.816,3.462-5.079,4.378
		c-2.048,0.822-4.19,1.159-6.453,1.024c-2.263-0.135-4.419-0.66-6.453-1.576c-2.6-1.091-4.365-2.667-5.254-4.715
		c-0.916-2.048-1.253-4.176-1.024-6.359c0.108-0.647,0.62-1.105,1.536-1.374c0.889-0.269,1.886-0.404,2.964-0.404
		c1.078,0,2.034,0.162,2.883,0.472c0.849,0.323,1.28,0.754,1.28,1.307c0,0.728,0.027,1.549,0.081,2.452
		c0.054,0.916,0.216,1.832,0.512,2.748c0.269,0.903,0.7,1.724,1.266,2.452c0.566,0.728,1.361,1.28,2.384,1.644
		c0.781,0.269,1.455,0.202,2.034-0.202c0.552-0.418,1.037-0.983,1.441-1.711c0.404-0.728,0.701-1.455,0.943-2.182
		c0.216-0.727,0.377-1.28,0.498-1.644c0.566-2.371,0.876-4.836,0.93-7.382c0.054-2.56-0.431-5.025-1.428-7.396
		c-0.808-1.63-1.792-3.274-2.977-4.917c-1.185-1.644-2.748-2.869-4.661-3.691c-2.95-1.186-5.86-1.482-8.743-0.889
		c-2.896,0.593-5.645,1.617-8.245,3.072c-2.142,1.28-4.095,2.56-5.847,3.839c-1.751,1.266-3.368,2.816-4.836,4.634
		c-3.516,4.473-6.035,9.376-7.558,14.711c-1.536,5.335-2.533,10.602-2.964,15.802c-0.35,5.739-0.296,11.626,0.162,17.634
		c0.458,6.022,2.102,11.72,4.917,17.096c1.132,2.102,2.587,4.109,4.338,6.022s3.732,3.53,5.941,4.863
		c2.209,1.307,4.607,2.263,7.207,2.869c2.6,0.593,5.321,0.606,8.15,0.067c5.429-1.091,9.673-3.098,12.731-6.022
		c3.058-2.91,5.254-6.264,6.615-10.05c1.361-3.786,2.061-7.773,2.115-11.976c0.054-4.19-0.243-8.15-0.916-11.895
		c-0.121-0.539,0.243-0.983,1.105-1.293c0.835-0.323,1.832-0.485,2.964-0.485c1.132,0,2.169,0.135,3.139,0.418
		c0.97,0.269,1.509,0.727,1.617,1.361c0.566,3.193,0.862,6.426,0.916,9.713c0.067,3.287-0.269,6.453-0.997,9.511
		c-0.754,3.045-1.967,6.008-3.664,8.878c-1.684,2.883-4.068,5.51-7.127,7.867c-2.95,2.277-6.197,4.082-9.753,5.402
		c-3.57,1.32-7.396,2.034-11.464,2.129c-6.669,0.175-12.717-0.983-18.146-3.489c-5.443-2.506-9.525-6.224-12.232-11.155
		c-2.937-5.012-4.836-10.306-5.685-15.856c-0.849-5.564-1.212-11.087-1.105-16.557C730.66,314.811,731.401,309.261,732.64,303.751z
		 M803.353,512.819c2.587,0.202,2.6,4.244,0,4.042c-3.961-0.296-7.921-0.606-11.882-0.903c-2.573-0.202-2.587-4.244,0-4.042
		C795.432,512.212,799.393,512.522,803.353,512.819z M659.785,335.665c0.216-3.772,0.377-7.598,0.458-11.464
		c0-0.431,0.296-0.754,0.889-0.97c0.579-0.216,1.24-0.323,1.967-0.323c0.727,0,1.388,0.108,1.98,0.323
		c0.593,0.216,0.889,0.539,0.889,0.97c0.175,1.199,0.269,2.385,0.269,3.543v3.543c0.525-1.468,1.118-2.856,1.778-4.19
		c0.66-1.334,1.428-2.587,2.304-3.799c0.62-0.943,1.428-1.738,2.452-2.385c0.997-0.633,2.061-1.051,3.166-1.226
		c1.091-0.175,2.182-0.054,3.233,0.323c1.051,0.391,1.98,1.186,2.775,2.385c1.132,1.63,1.846,3.408,2.115,5.348
		c0.256,1.94,0.391,3.88,0.391,5.86c-0.094,2.748-0.202,5.496-0.323,8.245c-0.135,2.748-0.296,5.712-0.471,8.891
		c-0.081,1.549,0.242,2.681,0.997,3.408c0.754,0.727,1.67,0.633,2.721-0.31c1.59-1.724,2.843-4.217,3.732-7.477
		c0.633-2.331,1.199-4.648,1.738-6.978c-0.027-0.768-0.04-1.522-0.027-2.304c0.094-2.573,0.404-4.85,0.943-6.83
		c0.795-2.654,1.98-5.079,3.53-7.275c1.536-2.182,3.651-3.88,6.318-5.092c1.415-0.687,2.896-1.01,4.446-0.956
		c1.549,0.04,2.896,0.62,4.055,1.738c0.889,0.943,1.401,1.953,1.522,3.031c0.148,1.064,0.027,2.182-0.323,3.341
		c-0.35,1.159-0.862,2.263-1.536,3.287c-0.66,1.024-1.307,1.926-1.926,2.708c-2.748,3.435-6.237,5.618-10.508,6.561
		c0,1.118,0.148,2.654,0.404,4.58c0.269,1.926,0.687,3.732,1.266,5.416c0.566,1.671,1.334,3.018,2.263,4.055
		c0.93,1.024,2.048,1.199,3.381,0.512c3.557-1.711,6.588-4.042,9.12-6.951c2.519-2.923,4.675-6.022,6.453-9.282
		c0.269-0.431,0.876-0.593,1.859-0.512c0.97,0.081,1.334,0.391,1.051,0.903c-0.876,1.805-2.075,3.934-3.583,6.372
		c-1.509,2.452-3.26,4.729-5.254,6.83c-1.994,2.102-4.163,3.759-6.52,4.958c-2.344,1.199-4.85,1.415-7.504,0.647
		c-2.492-0.687-4.419-1.994-5.793-3.934c-0.903-1.28-1.63-2.681-2.182-4.176c-0.162,0.512-0.296,1.037-0.471,1.536
		c-0.674,1.98-1.522,3.786-2.6,5.416c-1.051,1.63-2.344,2.748-3.853,3.341c-2.304,0.957-4.271,0.889-5.914-0.189
		c-1.644-1.064-2.681-2.64-3.125-4.702c-0.714-2.748-0.93-5.577-0.66-8.501c0.256-2.923,0.391-5.793,0.391-8.635
		c0-0.768,0.067-1.792,0.202-3.085c0.135-1.293,0.148-2.627,0.067-4.001c-0.094-1.374-0.35-2.614-0.795-3.732
		c-0.445-1.118-1.132-1.886-2.102-2.317c-0.62-0.256-1.32,0.175-2.102,1.293c-0.795,1.118-1.563,2.425-2.317,3.92
		c-0.728,1.509-1.388,2.991-1.967,4.446c-0.566,1.468-0.889,2.371-0.983,2.708c-0.525,1.455-0.957,2.95-1.32,4.446
		c-0.35,1.509-0.606,2.991-0.781,4.446v3.61c0,0.418-0.283,0.768-0.822,1.024c-0.539,0.256-1.159,0.391-1.832,0.391
		c-0.687,0-1.32-0.135-1.913-0.391c-0.593-0.256-0.93-0.606-1.024-1.024C659.758,343.223,659.57,339.438,659.785,335.665z
		 M589.625,310.675c0.62-4.634,1.751-9.08,3.381-13.337c1.657-4.244,3.866-8.097,6.669-11.532c2.789-3.435,6.157-6.264,10.104-8.501
		c3.934-2.223,8.447-3.651,13.499-4.244c0.525-0.094,1.051-0.027,1.59,0.189c0.539,0.216,0.903,0.445,1.132,0.701
		c0.216,0.269,0.242,0.552,0.067,0.849c-0.175,0.296-0.66,0.498-1.455,0.579c-3.112,0.431-6.008,1.239-8.716,2.452
		c-2.708,1.199-5.16,2.87-7.383,5.011c-3.637,3.611-6.493,7.868-8.581,12.758c-2.075,4.89-3.395,10.009-3.92,15.331
		c-0.525,5.321-0.364,10.629,0.525,15.91c0.889,5.281,2.479,10.117,4.783,14.496c1.159,2.317,2.667,4.702,4.526,7.153
		c1.859,2.438,3.974,4.567,6.318,6.372c2.358,1.805,4.904,3.031,7.652,3.678c2.748,0.633,5.631,0.269,8.649-1.105
		c2.748-1.199,5.119-2.708,7.113-4.5c1.994-1.819,3.732-3.853,5.187-6.13c1.468-2.277,2.667-4.702,3.597-7.275
		c0.93-2.573,1.697-5.241,2.331-7.989c1.051-4.89,1.603-9.902,1.643-15.008c0.054-5.106-0.458-10.104-1.522-15.008
		c-0.444-2.061-0.997-4.203-1.67-6.439c-0.66-2.236-1.563-4.351-2.721-6.386c-1.145-2.007-2.546-3.799-4.19-5.348
		c-1.63-1.536-3.651-2.573-6.049-3.085c-2.479-0.593-4.702-0.431-6.642,0.512c-1.953,0.943-3.57,2.317-4.863,4.122
		c-1.28,1.805-2.236,3.826-2.856,6.062c-0.62,2.236-0.808,4.378-0.539,6.439c0.094,0.687,0.296,1.482,0.606,2.385
		s0.727,1.738,1.266,2.506c0.525,0.781,1.145,1.374,1.859,1.805c0.714,0.431,1.549,0.525,2.533,0.256
		c1.064-0.337,1.886-0.876,2.452-1.603c0.579-0.727,1.024-1.576,1.334-2.519c0.31-0.943,0.512-1.926,0.593-2.95
		c0.094-1.037,0.175-1.98,0.269-2.843c0.094-0.593,0.66-0.903,1.724-0.903c1.078,0,1.684,0.31,1.859,0.903
		c0.269,1.468,0.296,2.896,0.081,4.311c-0.229,1.428-0.674,2.708-1.334,3.866c-0.674,1.159-1.603,2.102-2.789,2.843
		c-1.199,0.727-2.641,1.091-4.338,1.091c-2.748,0.081-5.308-0.62-7.706-2.129c-2.398-1.495-3.947-3.543-4.648-6.116
		c-0.539-1.805-0.606-3.624-0.202-5.47c0.391-1.846,1.078-3.61,2.061-5.294c0.97-1.671,2.169-3.166,3.583-4.5
		s2.937-2.425,4.526-3.287c2.829-1.455,5.981-2.209,9.444-2.263c3.462-0.04,6.601,0.714,9.444,2.263
		c3.988,2.236,7.086,5.348,9.309,9.336c2.209,4.001,3.759,8.312,4.648,12.946c0.889,4.648,1.266,9.363,1.145,14.172
		c-0.148,4.809-0.606,9.147-1.401,13.014c-0.889,4.122-2.452,8.366-4.661,12.758c-2.209,4.378-5.011,8.231-8.379,11.586
		c-3.368,3.355-7.221,5.793-11.572,7.342c-4.338,1.549-9.04,1.509-14.091-0.121c-5.052-1.63-9.336-4.297-12.839-7.989
		c-3.503-3.691-6.278-7.881-8.312-12.556c-2.034-4.688-3.381-9.619-4.055-14.819C589.032,320.227,589.005,315.31,589.625,310.675z
		 M599.58,390.024c0.229-1.118,0.458-2.25,0.687-3.368c0.216-1.105,1.468-1.644,2.479-1.415c1.118,0.256,1.617,1.455,1.414,2.492
		c-0.229,1.118-0.458,2.25-0.674,3.368c-0.229,1.105-1.482,1.644-2.492,1.415C599.877,392.26,599.378,391.061,599.58,390.024z
		 M596.886,367.351c-1.199-1.051-2.384-2.102-3.583-3.152c-0.822-0.727-0.727-2.129,0-2.856c0.808-0.808,2.048-0.727,2.856,0
		c1.199,1.051,2.398,2.102,3.583,3.152c0.822,0.727,0.741,2.128,0,2.856C598.934,368.159,597.708,368.078,596.886,367.351z
		 M602.867,379.327c-1.091,0.054-2.021-0.956-2.021-2.021v-3.139c0-1.132,0.916-1.967,2.021-2.021
		c1.091-0.054,2.021,0.97,2.021,2.021v3.139C604.888,378.438,603.959,379.287,602.867,379.327z M576.678,353.354
		c0.498-0.876,1.886-1.374,2.762-0.727c1.603,1.172,3.314,2.169,5.133,2.95c1.01,0.445,1.226,1.913,0.727,2.775
		c-0.593,1.01-1.765,1.159-2.762,0.727c-1.832-0.795-3.543-1.778-5.146-2.964C576.517,355.469,576.072,354.378,576.678,353.354z
		 M567.289,346.578c0.997-0.579,2.142-0.162,2.775,0.728c0.094,0.148,0.202,0.283,0.458,0.566c0.121,0.121,0.256,0.242,0.377,0.35
		c0.027,0.027,0.135,0.121,0.189,0.189c0.081,0.054,0.525,0.35,0.741,0.485c0.269,0.148,0.552,0.283,0.835,0.418
		c1.01,0.431,1.226,1.899,0.727,2.762c-0.593,1.01-1.765,1.159-2.762,0.728c-1.67-0.741-3.018-1.967-4.068-3.449
		C565.941,348.45,566.413,347.103,567.289,346.578z M561.051,336.999c0.876,1.819,2.021,3.381,3.489,4.769
		c1.9,1.778-0.956,4.634-2.856,2.856c-1.697-1.59-3.112-3.489-4.122-5.591c-0.471-0.983-0.283-2.169,0.728-2.762
		C559.179,335.746,560.58,336.016,561.051,336.999z M555.366,326.868c0.997-0.269,2.29,0.337,2.492,1.414
		c0.148,0.822,0.31,1.644,0.471,2.465c0.202,1.078-0.296,2.182-1.414,2.479c-0.997,0.283-2.29-0.337-2.492-1.401
		c-0.148-0.822-0.31-1.644-0.458-2.465C553.75,328.283,554.248,327.178,555.366,326.868z M510.142,465.075
		c0.97-5.294,3.961-10.036,8.986-14.199c2.088-1.792,4.553-3.287,7.409-4.486c2.856-1.186,5.86-1.994,8.986-2.411
		c3.125-0.418,6.224-0.418,9.295,0c3.058,0.418,5.847,1.347,8.352,2.775c2.789,1.67,4.877,3.61,6.264,5.806
		c1.401,2.209,2.102,4.486,2.102,6.803c0,2.331-0.701,4.594-2.102,6.79c-1.388,2.209-3.408,4.149-6.062,5.82
		c-0.701,0.35-1.697,0.566-3.031,0.62c-1.32,0.067-2.533-0.054-3.651-0.364c-1.105-0.283-1.953-0.647-2.492-1.064
		c-0.566-0.418-0.431-0.93,0.404-1.522c2.088-1.186,3.786-2.775,5.119-4.742c1.32-1.953,2.088-3.988,2.304-6.076
		c0.202-2.088-0.256-4.055-1.361-5.901c-1.118-1.846-3.071-3.301-5.847-4.378c-2.654-0.956-5.227-1.172-7.733-0.633
		c-2.492,0.539-4.809,1.495-6.884,2.87c-2.088,1.374-3.907,3.058-5.429,5.092c-1.536,2.034-2.654,4.001-3.354,5.901
		c-1.105,2.856-1.671,5.928-1.671,9.201c0,3.287,0.525,6.44,1.563,9.484c1.064,3.045,2.694,5.82,4.917,8.326
		c2.223,2.492,5.011,4.527,8.366,6.076c3.193,1.428,6.547,2.29,10.009,2.587c3.489,0.296,6.938,0.148,10.346-0.445
		c3.408-0.593,6.749-1.576,10.01-2.95c3.287-1.361,6.237-3.072,8.891-5.092c5.847-4.526,9.713-10.023,11.599-16.462
		c1.859-6.426,1.563-12.865-0.956-19.305c-2.223-5.725-5.658-10.575-10.333-14.576c-4.661-3.988-9.861-7.544-15.546-10.643
		c-2.654-1.428-5.416-2.856-8.272-4.284c-2.856-1.428-5.604-3.004-8.245-4.742c-2.64-1.724-5.011-3.637-7.1-5.725
		c-2.088-2.075-3.691-4.5-4.796-7.234c-1.118-2.869-1.644-5.82-1.576-8.851c0.067-3.045,0.701-5.901,1.886-8.581
		c1.172-2.694,2.883-5.16,5.119-7.423c2.223-2.263,4.944-4.122,8.137-5.55c2.358-1.064,4.917-1.846,7.638-2.317
		c2.694-0.485,5.389-0.566,8.029-0.269c2.64,0.296,5.16,0.983,7.517,2.048c2.358,1.078,4.392,2.627,6.062,4.648
		c4.028,4.89,5.389,9.511,4.068,13.862c-1.32,4.351-4.984,8.083-10.966,11.182c-0.701,0.35-1.63,0.512-2.816,0.444
		c-1.199-0.067-2.263-0.242-3.233-0.539c-0.983-0.296-1.644-0.714-1.994-1.253c-0.35-0.539,0.108-1.105,1.361-1.697
		c3.489-1.913,5.981-4.432,7.517-7.598c1.536-3.152,1.886-6.466,1.051-9.929c-0.552-2.385-1.711-4.163-3.449-5.362
		c-1.751-1.186-3.691-1.9-5.847-2.142c-2.156-0.242-4.378,0-6.682,0.714c-2.304,0.714-4.284,1.792-5.968,3.22
		c-3.61,3.099-5.914,6.413-6.884,9.915c-0.983,3.53-0.93,6.978,0.108,10.387c1.037,3.395,2.923,6.642,5.645,9.74
		c2.721,3.098,5.941,5.779,9.7,8.043c4.877,3.098,9.996,6.022,15.358,8.757c5.362,2.748,10.05,6.143,14.105,10.198
		c4.863,4.54,8.312,9.632,10.333,15.29c2.021,5.672,2.533,11.599,1.563,17.796c-0.835,5.604-3.193,10.548-7.1,14.832
		c-3.893,4.297-8.595,7.787-14.091,10.468c-5.51,2.681-11.464,4.5-17.864,5.456c-6.413,0.956-12.596,0.889-18.577-0.175
		c-6.278-1.078-11.734-3.557-16.409-7.423c-4.661-3.88-8.043-8.326-10.131-13.324C509.724,475.542,509.185,470.396,510.142,465.075z
		 M534.768,687.25c-1.832,1.28-3.462,2.775-4.944,4.446c-1.738,1.94-4.58-0.93-2.856-2.869c1.711-1.913,3.651-3.597,5.766-5.065
		c0.889-0.62,2.236-0.162,2.762,0.727C536.075,685.486,535.657,686.631,534.768,687.25z M531.386,580.46
		c-1.711-1.549-3.651-3.368-5.604-5.254c-0.364-0.337-0.714-0.687-1.078-1.024c-0.606-0.593-1.213-1.172-1.832-1.778l-0.013,2.075
		c0,1.428-0.027,2.856-0.054,4.23c-0.013,0.755-0.04,1.509-0.04,2.25c-0.081,4.042-0.216,8.016-0.377,11.478
		c-0.283,6.655-0.687,11.182-0.687,11.222c-0.04,0.498-0.458,0.876-0.956,0.876c-0.498,0-0.916-0.377-0.97-0.876
		c0-0.04-0.404-4.567-0.687-11.222c-0.162-3.516-0.283-7.477-0.364-11.478c-0.013-0.727-0.027-1.468-0.04-2.209
		c-0.04-1.388-0.067-2.829-0.067-4.271l-0.013-2.075c-0.62,0.606-1.239,1.199-1.846,1.792c-0.364,0.337-0.701,0.674-1.051,1.01
		c-1.94,1.873-3.88,3.678-5.604,5.254c-3.287,3.018-5.618,4.971-5.645,4.984c-0.377,0.323-0.943,0.296-1.293-0.054
		c-0.35-0.35-0.377-0.916-0.067-1.293c0.027-0.027,1.98-2.371,4.985-5.645c1.576-1.724,3.381-3.664,5.254-5.604
		c0.377-0.391,0.741-0.768,1.118-1.159c0.552-0.579,1.118-1.159,1.697-1.751h-2.088c-1.415-0.013-2.816-0.04-4.176-0.067
		c-0.768-0.013-1.536-0.027-2.29-0.04c-4.082-0.081-8.043-0.216-11.491-0.364c-6.642-0.283-11.168-0.701-11.208-0.701
		c-0.498-0.04-0.876-0.458-0.876-0.956c0-0.498,0.377-0.916,0.876-0.957c0.04-0.013,4.567-0.418,11.222-0.7
		c3.53-0.162,7.504-0.283,11.464-0.364c0.741-0.013,1.468-0.027,2.209-0.04c1.388-0.04,2.829-0.067,4.284-0.067l2.075-0.013
		c-0.62-0.606-1.212-1.239-1.792-1.846c-0.35-0.35-0.687-0.701-1.01-1.051c-1.859-1.926-3.678-3.866-5.267-5.604
		c-3.004-3.287-4.958-5.618-4.985-5.645c-0.31-0.377-0.296-0.943,0.067-1.293c0.35-0.35,0.916-0.377,1.293-0.067
		c0.027,0.027,2.358,1.98,5.645,4.998c1.738,1.576,3.664,3.395,5.604,5.254c0.364,0.35,0.728,0.687,1.091,1.051
		c0.593,0.566,1.199,1.145,1.805,1.751l0.013-2.088c0-1.415,0.04-2.829,0.067-4.19c0.013-0.768,0.027-1.522,0.04-2.277
		c0.081-4.042,0.202-8.016,0.364-11.491c0.283-6.642,0.687-11.168,0.701-11.208c0.04-0.498,0.458-0.876,0.957-0.876
		c0.498,0,0.916,0.377,0.956,0.876c0,0.04,0.404,4.567,0.687,11.222c0.162,3.408,0.283,7.369,0.377,11.478
		c0,0.727,0.027,1.468,0.04,2.223c0.027,1.388,0.054,2.816,0.054,4.257l0.013,2.075c0.62-0.606,1.239-1.212,1.859-1.792
		c0.35-0.337,0.701-0.674,1.037-1.01c1.94-1.859,3.866-3.678,5.618-5.267c3.274-3.004,5.618-4.958,5.631-4.971
		c0.391-0.323,0.957-0.296,1.307,0.054s0.377,0.916,0.054,1.293c-0.013,0.027-1.967,2.358-4.985,5.645
		c-1.576,1.724-3.395,3.664-5.254,5.604c-0.35,0.364-0.701,0.727-1.051,1.091c-0.579,0.606-1.159,1.212-1.751,1.805l2.075,0.013
		c1.415,0.013,2.816,0.04,4.176,0.067c0.768,0.013,1.536,0.027,2.29,0.04c4.122,0.081,8.083,0.216,11.491,0.364
		c6.642,0.283,11.168,0.687,11.222,0.7c0.498,0.04,0.876,0.458,0.876,0.957c0,0.256-0.108,0.498-0.283,0.674
		c-0.162,0.162-0.364,0.256-0.593,0.283c-0.054,0-4.58,0.404-11.222,0.687c-3.408,0.162-7.382,0.283-11.478,0.377
		c-0.714,0-1.441,0.027-2.169,0.04c-1.401,0.027-2.856,0.054-4.311,0.054l-2.088,0.013c0.606,0.606,1.185,1.212,1.751,1.805
		c0.364,0.377,0.714,0.741,1.064,1.105c1.886,1.953,3.691,3.893,5.254,5.604c3.018,3.274,4.971,5.618,4.985,5.631
		c0.323,0.391,0.296,0.956-0.054,1.307s-0.916,0.377-1.307,0.054C537.004,585.431,534.66,583.478,531.386,580.46z M548.253,682.198
		c-2.923,0.283-5.725,1.051-8.433,2.156c-2.411,0.983-3.449-2.923-1.078-3.893c3.072-1.253,6.21-1.98,9.511-2.304
		C550.84,677.888,550.813,681.942,548.253,682.198z M564.082,680.986h-7.585c-2.6,0-2.6-4.042,0-4.042h7.585
		C566.682,676.945,566.682,680.986,564.082,680.986z M562.21,587.209c-0.997-6.79-1.428-13.526-1.293-20.208
		c0.269-6.79,1.132-13.539,2.587-20.288c1.455-6.736,4.163-13.108,8.137-19.116c2.91-4.459,6.547-8.595,10.926-12.434
		c4.365-3.839,9.538-6.655,15.492-8.433c3.57-1.01,7.288-1.536,11.114-1.59c3.853-0.054,7.45,0.445,10.831,1.509
		c3.381,1.051,6.359,2.654,8.945,4.836c2.587,2.169,4.459,4.985,5.658,8.433c0.525,1.886,0.997,4.257,1.388,7.1
		c0.404,2.843,0.404,5.699,0,8.595c-0.391,2.896-1.266,5.577-2.587,8.016c-1.334,2.452-3.301,4.23-5.955,5.348
		c-2.384,0.997-4.89,1.414-7.544,1.253c-2.654-0.162-5.173-0.808-7.544-1.926c-3.058-1.334-5.106-3.26-6.157-5.752
		c-1.078-2.519-1.455-5.106-1.199-7.773c0.121-0.781,0.727-1.334,1.792-1.657c1.051-0.35,2.209-0.512,3.476-0.512
		c1.253,0,2.371,0.189,3.381,0.593c0.983,0.377,1.482,0.903,1.482,1.576c0,0.889,0.027,1.9,0.094,3.018
		c0.067,1.105,0.256,2.223,0.606,3.328c0.323,1.105,0.822,2.115,1.482,3.018c0.66,0.876,1.59,1.549,2.775,1.994
		c0.93,0.337,1.724,0.242,2.398-0.242c0.647-0.512,1.212-1.199,1.684-2.102c0.472-0.889,0.822-1.778,1.091-2.667
		c0.269-0.889,0.458-1.549,0.593-2.007c0.66-2.883,1.024-5.887,1.091-9.013c0.067-3.112-0.498-6.116-1.684-9.013
		c-0.93-2.007-2.075-4.015-3.476-6.022c-1.388-1.994-3.206-3.503-5.456-4.5c-3.449-1.455-6.857-1.805-10.238-1.091
		c-3.368,0.727-6.588,1.98-9.632,3.759c-2.519,1.563-4.796,3.125-6.844,4.675c-2.061,1.563-3.947,3.449-5.658,5.672
		c-4.109,5.469-7.073,11.451-8.851,17.958c-1.792,6.507-2.95,12.933-3.476,19.278c-0.404,7.019-0.337,14.213,0.202,21.541
		c0.525,7.356,2.452,14.307,5.752,20.881c1.32,2.56,3.018,5.012,5.079,7.342c2.048,2.344,4.365,4.324,6.951,5.928
		c2.587,1.617,5.389,2.789,8.433,3.503c3.031,0.741,6.224,0.768,9.538,0.108c6.345-1.347,11.316-3.799,14.9-7.356
		c3.57-3.557,6.143-7.652,7.746-12.273c1.576-4.621,2.398-9.498,2.465-14.603c0.067-5.133-0.283-9.983-1.078-14.549
		c-0.135-0.66,0.283-1.185,1.293-1.576c0.984-0.391,2.142-0.579,3.476-0.579c1.32,0,2.533,0.162,3.664,0.498
		c1.132,0.323,1.765,0.889,1.899,1.657c0.66,3.907,1.01,7.854,1.078,11.869c0.067,4.001-0.323,7.881-1.186,11.599
		c-0.862,3.732-2.29,7.356-4.284,10.858c-1.967,3.516-4.742,6.709-8.339,9.592c-3.435,2.789-7.234,4.998-11.411,6.615
		c-4.163,1.603-8.649,2.465-13.418,2.573c-7.8,0.216-14.886-1.186-21.231-4.244c-6.372-3.072-11.141-7.598-14.307-13.62
		C565.416,600.466,563.207,594.013,562.21,587.209z M627.709,651.699c-0.552-2.533,3.341-3.611,3.893-1.078
		c0.458,2.061,0.458,4.068,0.054,6.143c-0.216,1.078-1.495,1.684-2.492,1.401c-1.105-0.296-1.617-1.414-1.401-2.479
		C628.019,654.366,627.992,653.019,627.709,651.699z M623.412,646.242c-2.021-1.253-4.149-2.007-6.493-2.358
		c-1.078-0.162-1.684-1.536-1.414-2.479c0.323-1.145,1.401-1.576,2.492-1.415c2.654,0.404,5.173,1.347,7.463,2.762
		C627.669,644.114,625.635,647.603,623.412,646.242z M593.195,660.724c0.983-0.579,2.156-0.189,2.762,0.728
		c0.364,0.552,1.145,1.401,1.644,1.778c0.876,0.66,1.334,1.738,0.727,2.762c-0.498,0.876-1.886,1.388-2.762,0.727
		c-1.226-0.916-2.236-1.953-3.099-3.233C591.861,662.57,592.292,661.25,593.195,660.724z M590.635,654.379
		c0.067-1.186,0.121-2.358,0.189-3.543c0.054-1.091,0.876-2.021,2.021-2.021c1.051,0,2.075,0.93,2.021,2.021
		c-0.067,1.186-0.121,2.358-0.189,3.543c-0.054,1.091-0.876,2.021-2.021,2.021C591.605,656.4,590.581,655.471,590.635,654.379z
		 M584.29,681.633c-2.64-0.067-5.281-0.135-7.921-0.202c-2.6-0.054-2.6-4.095,0-4.042c2.64,0.067,5.281,0.135,7.921,0.202
		C586.89,677.645,586.89,681.687,584.29,681.633z M602.005,679.908c-3.193,0.647-6.399,0.97-9.646,0.916
		c-2.6-0.054-2.6-4.095,0-4.042c2.896,0.04,5.725-0.189,8.568-0.768C603.474,675.503,604.551,679.396,602.005,679.908z
		 M603.474,672.405c-1.388-0.162-2.681-0.674-3.597-1.778c-0.701-0.849-0.835-2.034,0-2.87c0.714-0.714,2.155-0.835,2.856,0
		c0.108,0.135,0.229,0.269,0.35,0.391c0.027,0.013,0.081,0.04,0.121,0.067c0.04,0.04,0.067,0.054,0.094,0.067
		c0.013,0.013,0.027,0.013,0.04,0.013c0.135,0.04,0.431,0.108,0.135,0.067c1.132,0.148,1.967,0.822,2.021,2.021
		C605.548,671.381,604.538,672.539,603.474,672.405z M606.882,643.373c-2.236,1.239-4.553,2.331-6.924,3.301
		c-1.024,0.418-2.223-0.458-2.492-1.401c-0.31-1.145,0.404-2.075,1.415-2.492c2.048-0.849,4.028-1.819,5.968-2.896
		C607.124,638.631,609.159,642.12,606.882,643.373z M616.164,675.584c-1.859,0.781-3.705,1.549-5.564,2.331
		c-1.024,0.418-2.223-0.471-2.492-1.414c-0.31-1.145,0.404-2.075,1.415-2.492c1.859-0.768,3.718-1.536,5.577-2.317
		c1.01-0.418,2.223,0.458,2.479,1.415C617.902,674.25,617.174,675.166,616.164,675.584z M622.213,666.032
		c1.428-1.212,2.56-2.6,3.449-4.244c1.253-2.29,4.742-0.242,3.503,2.034c-1.051,1.926-2.438,3.651-4.095,5.065
		c-0.835,0.714-2.034,0.822-2.856,0C621.485,668.161,621.378,666.733,622.213,666.032z M632.276,675.287
		c-2.802,0.229-5.618,0.229-8.42,0.013c-2.587-0.202-2.6-4.244,0-4.042c2.802,0.216,5.604,0.216,8.42-0.013
		C634.876,671.03,634.849,675.072,632.276,675.287z M645.425,672.27c-1.846,0.525-3.691,1.064-5.523,1.603
		c-2.506,0.728-3.57-3.166-1.078-3.893c1.846-0.539,3.678-1.078,5.523-1.617C646.853,667.635,647.917,671.542,645.425,672.27z
		 M652.834,670.087c-1.024,0.377-2.209-0.431-2.479-1.414c-0.31-1.118,0.377-2.102,1.401-2.479c1.522-0.566,3.031-1.118,4.553-1.684
		c1.024-0.377,2.209,0.431,2.479,1.415c0.31,1.118-0.377,2.102-1.401,2.479C655.865,668.969,654.356,669.522,652.834,670.087z
		 M714.238,691.952c-0.121,0.121-0.283,0.202-0.458,0.216c-0.04,0.013-3.53,0.323-8.662,0.539c-2.627,0.121-5.685,0.216-8.851,0.283
		c-0.552,0.013-1.105,0.013-1.67,0.027c-1.078,0.027-2.196,0.054-3.328,0.054l-1.603,0.013c0.458,0.458,0.903,0.93,1.347,1.388
		c0.283,0.283,0.552,0.566,0.822,0.849c1.455,1.509,2.856,3.004,4.055,4.324c2.317,2.533,3.826,4.324,3.84,4.351
		c0.256,0.296,0.229,0.728-0.04,0.997s-0.714,0.296-0.997,0.04c-0.027-0.013-1.819-1.522-4.351-3.839
		c-1.32-1.199-2.816-2.6-4.324-4.055c-0.283-0.269-0.552-0.525-0.835-0.795c-0.458-0.445-0.93-0.903-1.401-1.374l-0.013,1.617
		c0,1.091-0.027,2.196-0.054,3.247c-0.013,0.593-0.013,1.172-0.027,1.738c-0.067,3.125-0.162,6.184-0.283,8.864
		c-0.216,5.119-0.539,8.608-0.539,8.649c-0.027,0.377-0.35,0.674-0.741,0.674c-0.377,0-0.701-0.296-0.741-0.674
		c0-0.04-0.31-3.53-0.525-8.662c-0.135-2.694-0.229-5.766-0.283-8.851c-0.013-0.552-0.027-1.118-0.04-1.697
		c-0.027-1.064-0.04-2.182-0.04-3.3l-0.013-1.603c-0.471,0.471-0.957,0.943-1.428,1.388c-0.269,0.269-0.539,0.525-0.808,0.781
		c-1.495,1.441-2.991,2.843-4.324,4.055c-2.533,2.317-4.338,3.826-4.351,3.839c-0.296,0.256-0.728,0.229-0.997-0.04
		c-0.269-0.269-0.296-0.701-0.054-0.997c0.013-0.027,1.522-1.819,3.853-4.351c1.199-1.334,2.6-2.829,4.055-4.324
		c0.283-0.296,0.566-0.593,0.849-0.889c0.431-0.445,0.862-0.903,1.307-1.347l-1.603-0.013c-1.091,0-2.169-0.027-3.22-0.04
		c-0.593-0.013-1.185-0.027-1.765-0.04c-3.152-0.067-6.21-0.162-8.864-0.283c-5.133-0.216-8.622-0.525-8.649-0.539
		c-0.391-0.027-0.674-0.35-0.674-0.741c0-0.377,0.283-0.701,0.674-0.728c0.027-0.013,3.516-0.323,8.649-0.539
		c2.735-0.121,5.793-0.229,8.851-0.283c0.566-0.013,1.132-0.027,1.697-0.04c1.078-0.013,2.182-0.04,3.301-0.04l1.603-0.013
		c-0.472-0.471-0.93-0.956-1.374-1.428c-0.269-0.269-0.525-0.539-0.781-0.808c-1.442-1.482-2.843-2.977-4.055-4.324
		c-2.331-2.533-3.839-4.324-3.853-4.351c-0.242-0.296-0.216-0.727,0.054-0.997c0.269-0.269,0.701-0.296,0.997-0.054
		c0.013,0.027,1.819,1.522,4.351,3.853c1.334,1.226,2.829,2.627,4.324,4.055c0.283,0.269,0.552,0.539,0.835,0.808
		c0.471,0.445,0.93,0.889,1.401,1.347l0.013-1.603c0-1.091,0.027-2.182,0.04-3.233c0.013-0.593,0.027-1.172,0.04-1.751
		c0.054-3.125,0.162-6.183,0.283-8.864c0.215-5.119,0.525-8.608,0.525-8.649c0.04-0.377,0.364-0.674,0.741-0.674
		c0.391,0,0.714,0.296,0.741,0.674c0,0.04,0.323,3.53,0.539,8.649c0.121,2.627,0.216,5.699,0.283,8.851
		c0.013,0.579,0.013,1.145,0.027,1.724c0.027,1.064,0.054,2.169,0.054,3.274l0.013,1.617c0.471-0.472,0.956-0.943,1.428-1.388
		c0.269-0.269,0.539-0.525,0.808-0.781c1.482-1.428,2.977-2.829,4.324-4.055c2.533-2.331,4.324-3.826,4.351-3.839
		c0.283-0.256,0.727-0.229,0.997,0.04c0.269,0.269,0.283,0.7,0.04,0.997c-0.013,0.027-1.522,1.819-3.84,4.351
		c-1.226,1.334-2.627,2.829-4.055,4.324c-0.269,0.283-0.539,0.566-0.822,0.849c-0.431,0.458-0.889,0.93-1.347,1.388l1.617,0.013
		c1.078,0,2.156,0.027,3.206,0.04c0.606,0.013,1.185,0.027,1.778,0.04c3.166,0.067,6.237,0.162,8.851,0.283
		c5.133,0.216,8.622,0.525,8.662,0.525c0.377,0.04,0.674,0.364,0.674,0.741C714.454,691.642,714.373,691.817,714.238,691.952z
		 M663.935,660.226c0.889-0.62,1.792-1.253,2.681-1.872c0.903-0.633,2.25-0.162,2.762,0.727c0.579,0.997,0.175,2.142-0.727,2.762
		c-0.889,0.62-1.778,1.253-2.681,1.873c-0.889,0.633-2.236,0.162-2.762-0.727C662.628,661.991,663.046,660.846,663.935,660.226z
		 M673.944,651.927c1.118-1.078,2.398-1.994,3.799-2.654c0.983-0.471,2.169-0.283,2.762,0.728c0.512,0.876,0.256,2.304-0.727,2.762
		c-1.199,0.566-2.088,1.172-2.977,2.021c-0.781,0.768-2.075,0.795-2.856,0C673.19,654.029,673.163,652.695,673.944,651.927z
		 M683.59,647.805c1.468-0.31,2.923-0.62,4.392-0.943c1.064-0.229,2.182,0.31,2.492,1.415c0.269,1.01-0.35,2.263-1.415,2.492
		c-1.468,0.31-2.937,0.62-4.392,0.943c-1.078,0.229-2.182-0.31-2.492-1.414C681.906,649.287,682.526,648.048,683.59,647.805z
		 M693.316,648.573c0.242-1.078,1.469-1.67,2.492-1.414c1.118,0.296,2.236,0.593,3.355,0.876c1.091,0.296,1.657,1.441,1.414,2.492
		c-0.242,1.078-1.468,1.684-2.492,1.414c-1.118-0.296-2.236-0.593-3.354-0.876C693.64,650.769,693.074,649.637,693.316,648.573z
		 M703.259,650.931c0.822-0.822,2.021-0.687,2.856,0c0.485,0.391,1.159,0.849,1.778,1.212c0.943,0.552,1.28,1.819,0.727,2.762
		c-0.552,0.943-1.832,1.28-2.775,0.727c-0.916-0.539-1.765-1.172-2.587-1.846C702.41,653.086,702.545,651.645,703.259,650.931z
		 M740.279,598.485c-1.711,1.617-3.664,2.856-5.847,3.759c-2.196,0.889-4.675,1.118-7.45,0.66c-2.533-0.445-4.351-1.59-5.469-3.422
		c-1.132-1.832-1.832-4.028-2.088-6.588c-0.269,0.431-0.525,0.835-0.795,1.172c-0.269,0.323-0.525,0.714-0.781,1.172
		c-1.199,1.549-2.492,3.058-3.88,4.486c-1.388,1.455-2.91,2.6-4.58,3.435c-1.643,0.835-3.476,1.28-5.456,1.334
		c-1.98,0.067-4.176-0.471-6.547-1.59c-1.926-0.876-3.462-2.182-4.607-3.866c-0.31,1.091-0.62,2.196-0.97,3.287
		c-0.795,2.506-1.684,4.917-2.667,7.261c-1.01,2.331-2.304,4.459-3.88,6.345c-1.334,1.563-2.91,2.735-4.769,3.503
		c-1.859,0.795-3.974,0.903-6.359,0.337c-1.32-0.337-2.452-0.97-3.368-1.913c-0.93-0.956-1.67-2.061-2.182-3.341
		c-0.539-1.28-0.97-2.56-1.293-3.853c-0.35-1.266-0.566-2.411-0.701-3.422c-0.404-3.664-0.633-7.383-0.701-11.182
		c-0.054-3.772,0.04-7.571,0.296-11.343c-3.826,0.876-7.517,0.93-11.02,0.162c-3.516-0.781-5.981-3.004-7.436-6.682
		c-0.66-1.671-1.132-3.57-1.388-5.685c-0.283-2.102-0.283-4.203,0-6.251c0.256-2.061,0.822-4.042,1.67-5.941
		c0.862-1.886,2.223-3.435,4.082-4.675c2.775-1.778,5.267-2.075,7.45-0.903c2.182,1.159,3.395,3.018,3.664,5.577
		c0.256,3.57,0,7.248-0.781,11.02c-0.795,3.799-2.331,7.302-4.58,10.535c1.455,0.431,3.152,0.323,5.079-0.337
		c1.899-0.674,3.597-1.334,5.052-2.007c0.391-0.229,0.983-0.391,1.792-0.498c0.795-0.108,1.657-0.135,2.573-0.081
		c0.93,0.054,1.738,0.216,2.398,0.485c0.66,0.296,0.983,0.768,0.983,1.428c-0.135,3.112-0.256,6.237-0.391,9.349
		c-0.148,3.112-0.148,6.291,0,9.511c0.135,2.573,0.067,5.214-0.202,7.948c-0.269,2.721-0.135,5.308,0.404,7.76
		c0.377,1.792,1.01,2.533,1.886,2.25c0.862-0.269,1.711-0.97,2.573-2.075c0.862-1.118,1.657-2.371,2.385-3.772
		c0.727-1.388,1.213-2.304,1.495-2.748c1.576-3.57,2.87-7.153,3.88-10.764c0.687-2.533,1.441-5.039,2.236-7.544
		c-0.094-0.835-0.162-1.684-0.162-2.56c0-3.125,0.512-6.157,1.495-9.107c0.997-2.95,2.277-5.308,3.88-7.086
		c1.576-1.913,3.503-3.328,5.752-4.271c2.25-0.943,4.54-1.388,6.857-1.334c2.304,0.054,4.486,0.633,6.561,1.751
		c2.034,1.118,3.664,2.789,4.863,5.011c0.256,0.566-0.216,0.862-1.388,0.916c-1.199,0.054-1.926-0.081-2.209-0.418
		c-0.512-0.674-1.266-1.415-2.277-2.25c-0.983-0.835-2.075-1.455-3.274-1.846c-1.186-0.377-2.317-0.458-3.381-0.242
		c-1.051,0.229-1.967,1.01-2.775,2.331c-0.391,0.903-0.768,1.765-1.091,2.6c-0.337,0.835-0.633,1.684-0.889,2.587
		c-0.525,1.886-0.903,3.745-1.091,5.591c-0.202,1.846-0.296,3.705-0.296,5.591c0,1.778,0.135,3.503,0.391,5.173
		c0.256,1.67,0.795,3.287,1.576,4.85c0.943,1.792,1.67,2.64,2.209,2.587c0.512-0.054,1.576-0.687,3.166-1.913
		c2.91-2.344,5.241-4.985,6.951-7.935c1.724-2.95,3.368-5.874,4.958-8.77c0.269-2.115,0.593-4.068,0.997-5.847
		c0.404-1.778,0.727-3.233,0.997-4.351c0.121-0.66,0.66-1.159,1.59-1.482c0.93-0.35,1.94-0.512,3.072-0.512
		c1.132,0,2.156,0.162,3.098,0.512c0.916,0.323,1.388,0.822,1.388,1.482c0,4.015-0.404,8.083-1.199,12.192
		c-0.795,4.136-0.593,8.191,0.593,12.192c0.269,0.687,0.485,1.482,0.701,2.438c0.189,0.929,0.754,1.01,1.684,0.242
		c1.064-0.781,1.98-1.563,2.775-2.344c0.795-0.768,1.603-1.617,2.398-2.492c1.051-1.226,2.075-2.398,3.072-3.503
		c0.997-1.118,2.021-2.29,3.085-3.516c0.121-0.229,0.485-0.391,1.078-0.498c0.606-0.108,1.199-0.148,1.792-0.081
		c0.606,0.054,1.051,0.162,1.401,0.323c0.323,0.162,0.35,0.418,0.094,0.755c-1.064,1.67-2.25,3.503-3.57,5.51
		C743.526,595.05,742.003,596.882,740.279,598.485z M782.176,604.911c-0.391,0.229-0.916,0.337-1.59,0.337
		c-0.66,0-1.347-0.027-2.075-0.081c-0.727-0.054-1.172-0.135-1.293-0.256c-3.449-1.886-7.18-2.667-11.222-2.344
		c-4.042,0.337-7.773,1.347-11.222,3.018c-0.404,0.216-0.997,0.377-1.792,0.498c-0.795,0.121-1.644,0.148-2.587,0.094
		c-0.916-0.067-1.684-0.242-2.277-0.512c-0.593-0.283-0.889-0.754-0.889-1.428c0.391-5.887,2.277-11.451,5.658-16.691
		c3.381-5.241,7.773-9.632,13.202-13.189c-3.705,0.216-7.356,0.135-10.926-0.256c-3.57-0.377-6.291-1.361-8.15-2.923
		c-0.377-0.431-0.485-0.768-0.283-1.01c0.189-0.216,0.566-0.377,1.091-0.485c0.525-0.108,1.091-0.175,1.684-0.175h1.293
		c3.826,0.903,7.935,1.482,12.313,1.751c4.365,0.283,8.339-0.296,11.922-1.751c0.404-0.108,1.064-0.162,1.98-0.162
		c0.93,0,1.819,0.081,2.681,0.242c0.862,0.175,1.495,0.418,1.9,0.768c0.391,0.323,0.256,0.66-0.404,0.983
		c-6.359,3.57-11.37,7.827-15.007,12.771c-3.637,4.971-6.507,10.387-8.622,16.301c2.236-0.445,4.553-0.795,6.951-1.01
		c2.371-0.216,4.702-0.189,6.938,0.081c2.25,0.283,4.311,0.781,6.17,1.509c1.832,0.727,3.368,1.751,4.553,3.085
		C782.58,604.399,782.58,604.696,782.176,604.911z M775.831,524.458c-1.792,1.899-4.648-0.97-2.869-2.87
		c1.67-1.778,3.476-3.435,5.389-4.944c0.849-0.687,2.007-0.849,2.856,0c0.701,0.701,0.849,2.169,0,2.856
		C779.293,521.023,777.501,522.666,775.831,524.458z M778.97,555.672c-0.714,0.714-2.169,0.849-2.856,0
		c-1.684-2.061-3.072-4.257-4.109-6.709c-0.431-1.01-0.323-2.156,0.728-2.762c0.849-0.499,2.331-0.283,2.762,0.727
		c0.889,2.102,2.021,4.109,3.476,5.887C779.657,553.665,779.805,554.837,778.97,555.672z M773.527,531.113
		c-0.121,2.856-0.067,5.685,0.189,8.528c0.229,2.6-3.826,2.573-4.042,0c-0.256-2.843-0.31-5.672-0.189-8.528
		C769.607,528.513,773.648,528.513,773.527,531.113z M779.468,474.114c-1.468,1.913-3.098,3.543-4.904,4.917
		c-1.819,1.374-3.974,2.236-6.466,2.6c-4.055,0.472-7.18-0.458-9.403-2.775c-2.223-2.331-3.839-4.863-4.809-7.611
		c-0.081-0.216-0.148-0.431-0.229-0.647c-0.525,2.317-1.132,4.648-1.859,7.005c-0.835,2.681-1.765,5.281-2.829,7.773
		c-1.037,2.506-2.398,4.769-4.055,6.803c-1.549,1.657-3.247,2.91-5.133,3.745c-1.873,0.849-4.068,0.956-6.574,0.364
		c-1.536-0.364-2.748-1.037-3.664-2.061c-0.903-1.01-1.657-2.169-2.29-3.489c-0.633-1.307-1.078-2.681-1.361-4.109
		c-0.269-1.428-0.471-2.681-0.633-3.745c-0.404-3.947-0.647-7.935-0.727-11.99c-0.067-4.055,0.04-8.11,0.323-12.165
		c-4.042,0.957-7.733,1.078-11.06,0.364c-2.789,2.748-6.008,5.038-9.619,6.884c-3.624,1.859-7.517,2.896-11.693,3.125
		c-1.105,2.748-2.614,5.254-4.5,7.517c-1.886,2.263-4.271,3.934-7.207,5.011c-3.88,1.307-7.935,1.684-12.111,1.159
		c-4.163-0.539-7.383-2.533-9.605-5.995c-0.283-0.404-0.525-0.835-0.781-1.253c-1.576,4.23-3.745,8.177-6.52,11.801
		c-1.132,1.549-2.398,3.018-3.866,4.378c-1.455,1.374-3.381,2.061-5.766,2.061c-2.829,0-4.944-0.862-6.278-2.587
		c-1.361-1.738-2.277-3.759-2.775-6.089c-0.499-2.317-0.687-4.702-0.539-7.153c0.148-2.438,0.216-4.432,0.216-5.981
		c0.135-3.098,0.269-6.224,0.404-9.39c0.135-3.166,0.135-6.291,0-9.39c0-0.593-0.027-1.644-0.094-3.125
		c-0.067-1.495-0.242-2.95-0.525-4.392c-0.283-1.428-0.741-2.587-1.347-3.476c-0.633-0.903-1.576-1.105-2.829-0.633
		c-3.206,1.428-5.564,3.583-7.1,6.44c-1.522,2.869-2.614,5.941-3.247,9.215c-0.606,3.274-0.93,6.615-0.93,10.009v9.026
		c0,0.835-0.593,1.374-1.778,1.617c-1.186,0.242-2.115,0.35-2.816,0.35h-0.202c-0.849,0-1.792-0.108-2.829-0.35
		c-1.051-0.242-1.711-0.781-1.98-1.617c-1.953-8.932-3.058-17.931-3.354-26.997c-0.269-9.053,0.135-18.066,1.266-26.997
		c0.418-2.748,0.903-5.779,1.455-9.12c0.566-3.341,1.428-6.655,2.613-9.929c1.186-3.274,2.708-6.318,4.594-9.12
		c1.886-2.802,4.351-5.038,7.409-6.709c4.19-2.263,8.582-2.614,13.189-1.064c2.856,0.957,4.648,2.654,5.335,5.092
		c0.714,2.438,0.943,4.729,0.647,6.884c-0.418,3.813-1.388,7.692-2.883,11.626c-1.482,3.934-3.354,7.746-5.604,11.438
		c-2.25,3.705-4.904,7.194-7.962,10.468s-6.345,6.103-9.821,8.487v4.836c0,1.549,0.067,3.152,0.216,4.823
		c1.374-2.977,3.125-5.362,5.227-7.153c1.657-1.428,3.61-2.56,5.847-3.395c2.223-0.835,4.419-1.226,6.601-1.159
		c2.169,0.054,4.19,0.62,6.035,1.697c1.859,1.064,3.193,2.748,4.068,5.012c0.97,2.856,1.522,5.806,1.657,8.837
		c0.148,3.045,0.108,6.089-0.094,9.134c-0.202,3.031-0.498,6.076-0.835,9.107c-0.35,3.045-0.525,5.995-0.525,8.851v4.122
		c0,1.428,0.283,2.735,0.835,3.934v0.175c0.418-0.35,0.795-0.741,1.159-1.159c0.337-0.418,0.728-0.862,1.145-1.347
		c2.775-3.813,5.119-7.894,6.992-12.246c0.956-2.209,1.872-4.419,2.775-6.628c-0.229-1.388-0.364-2.816-0.364-4.284
		c0-4.944,1.307-9.39,3.961-13.324c1.118-1.67,2.546-3.22,4.284-4.648c1.738-1.428,3.651-2.56,5.739-3.395
		c1.105-2.021,2.721-3.543,4.823-4.553c2.088-1.01,4.58-1.172,7.504-0.458c2.506,0.593,4.594,1.738,6.278,3.395
		c1.657,1.684,3.018,3.557,4.055,5.631c1.051,2.088,1.819,4.297,2.304,6.628c0.485,2.317,0.66,4.432,0.525,6.345
		c-0.135,1.078-0.269,2.169-0.418,3.314c-0.148,1.132-0.418,2.358-0.849,3.664c3.22-0.242,6.17-1.253,8.891-3.045
		c2.708-1.792,5.038-3.759,6.992-5.901c-1.805-1.307-3.058-3.098-3.759-5.362c-0.701-1.792-1.186-3.786-1.468-5.995
		c-0.269-2.209-0.269-4.405,0-6.615c0.283-2.209,0.876-4.324,1.792-6.345c0.903-2.034,2.331-3.691,4.271-5.011
		c1.388-1.064,2.775-1.67,4.176-1.778c1.388-0.135,2.614,0.081,3.651,0.62c1.051,0.525,1.926,1.334,2.627,2.411
		c0.687,1.078,1.024,2.263,1.024,3.583c0.296,3.813,0,7.773-0.822,11.882c-0.835,4.109-2.438,7.841-4.796,11.182
		c1.671,0.593,3.503,0.499,5.523-0.269c2.021-0.781,3.786-1.522,5.321-2.236c0.418-0.121,1.051-0.269,1.886-0.445
		c0.835-0.189,1.738-0.242,2.721-0.189c0.97,0.067,1.765,0.242,2.398,0.539c0.62,0.31,0.93,0.808,0.93,1.522
		c-0.135,3.462-0.242,6.857-0.31,10.198c-0.067,3.328-0.094,6.736-0.094,10.185c0.135,2.627,0.067,5.402-0.202,8.312
		c-0.296,2.937-0.094,5.699,0.606,8.326c0.431,1.899,1.051,2.735,1.886,2.506c0.835-0.242,1.738-0.957,2.721-2.156
		c0.97-1.186,1.832-2.533,2.6-4.015c0.768-1.495,1.293-2.533,1.576-3.139c1.67-3.691,3.031-7.477,4.068-11.343
		c1.051-3.88,2.129-7.719,3.247-11.545c0.108-0.283,0.323-0.485,0.647-0.62c-0.242-1.765-0.404-3.557-0.445-5.362
		c-0.135-5.308-0.067-10.467,0.202-15.479c0.296-3.678,0.633-7.356,1.051-10.993c0.418-3.637,0.97-7.302,1.67-10.993
		c0.135-0.835,0.242-1.67,0.323-2.506c0.067-0.835,0.242-1.724,0.512-2.681c-3.893,0.242-7.76,0.471-11.599,0.714
		c-3.826,0.242-7.612,0.418-11.37,0.539c-0.552,0-1.159-0.121-1.778-0.35c-0.633-0.242-1.105-0.512-1.468-0.808
		c-0.337-0.31-0.445-0.606-0.296-0.903c0.135-0.296,0.687-0.552,1.657-0.795c4.19-0.957,8.393-1.711,12.636-2.25
		c4.244-0.525,8.528-0.983,12.839-1.334c0.431-2.142,0.97-4.271,1.684-6.345c0.687-2.088,1.738-3.961,3.139-5.645
		c0.269-0.35,0.754-0.62,1.455-0.795s1.428-0.269,2.196-0.269s1.455,0.148,2.088,0.445c0.633,0.296,0.997,0.687,1.145,1.159
		c0.418,1.684,0.525,3.408,0.323,5.2c-0.229,1.778-0.539,3.637-0.956,5.537c4.473-0.242,8.986-0.512,13.58-0.808
		c4.607-0.296,9.12-0.62,13.579-0.983c1.105-0.108,2.156,0,3.125,0.364c0.97,0.35,1.697,0.768,2.196,1.253
		c0.498,0.471,0.566,0.943,0.216,1.428c-0.35,0.471-1.361,0.768-3.045,0.889c-5.146,0.485-10.292,0.957-15.439,1.428
		c-5.16,0.485-10.373,0.97-15.681,1.441c-0.135,0.593-0.269,1.212-0.404,1.873c-0.135,0.66-0.283,1.28-0.418,1.873
		c-0.418,2.627-0.808,5.254-1.145,7.867c-0.364,2.627-0.66,5.308-0.956,8.056c-0.539,4.648-0.903,9.322-1.037,14.024
		c-0.135,4.715,0,9.403,0.431,14.051c0.135,2.385,0.404,5.267,0.835,8.676c0.404,3.381,1.522,6.157,3.328,8.299
		c0.983,1.078,2.223,1.024,3.759-0.175c1.549-1.186,3.112-2.789,4.702-4.823c1.603-2.021,3.099-4.082,4.486-6.17
		c1.401-2.088,2.304-3.489,2.721-4.203c0.135-0.35,0.566-0.593,1.266-0.714c0.687-0.121,1.361-0.121,1.967,0
		c0.633,0.121,1.159,0.296,1.576,0.539c0.418,0.242,0.552,0.539,0.418,0.889c-0.97,1.67-2.034,3.557-3.139,5.631
		C782.216,470.207,780.923,472.215,779.468,474.114z M825.474,627.288c-0.525,0.216-1.159,0.337-1.886,0.337
		c-0.728,0-1.455-0.094-2.182-0.256c-0.728-0.162-1.172-0.418-1.293-0.741l-1.778-2.519c-0.795,2.236-1.792,4.54-2.991,6.938
		c-1.185,2.385-2.667,4.5-4.459,6.345c-1.792,1.846-3.88,3.287-6.264,4.338c-2.385,1.064-5.16,1.414-8.339,1.091
		c-4.634-0.552-7.679-1.926-9.134-4.082c-1.468-2.182-1.819-4.594-1.091-7.275c0.727-2.667,2.209-5.241,4.459-7.679
		c2.263-2.452,4.904-4.284,7.948-5.523c1.724-0.66,3.772-1.132,6.157-1.415c2.385-0.269,4.836-0.31,7.356-0.081
		c0.647-3.341,1.091-6.736,1.28-10.185c0.216-3.449,0.31-6.911,0.31-10.36c-0.539,0.687-0.862,1.239-0.997,1.671
		c-1.59,2.344-3.422,4.513-5.456,6.507c-2.061,2.021-4.796,3.125-8.245,3.355c-1.59,0.121-2.95-0.108-4.068-0.674
		c-1.132-0.552-2.115-1.307-2.991-2.25c-0.862-0.943-1.59-1.98-2.182-3.085c-0.593-1.118-1.078-2.182-1.482-3.179
		c-1.078-2.115-1.765-4.365-2.088-6.763c-0.337-2.385-0.498-4.782-0.498-7.18c0-2.398,0.121-4.782,0.404-7.18
		c0.256-2.385,0.525-4.702,0.781-6.924c0-0.674,0.472-1.172,1.401-1.509c0.916-0.337,1.953-0.498,3.072-0.498
		c1.132,0,2.115,0.162,2.991,0.498c0.849,0.337,1.293,0.835,1.293,1.509c-0.148,3.893-0.377,7.827-0.701,11.761
		c-0.337,3.961-0.431,7.881-0.31,11.788c0,0.323,0.094,1.199,0.31,2.573c0.189,1.401,0.512,2.816,0.983,4.257
		c0.471,1.455,1.105,2.627,1.9,3.503c0.781,0.903,1.711,0.957,2.775,0.189c2.25-1.455,4.136-3.274,5.658-5.443
		c1.522-2.156,2.775-4.446,3.786-6.83c0.984-2.398,1.671-4.85,2.075-7.356c0.391-2.506,0.525-4.931,0.391-7.275
		c0-0.66,0.472-1.159,1.388-1.495c0.93-0.337,1.967-0.498,3.099-0.498c1.105,0,2.169,0.162,3.166,0.498s1.549,0.835,1.697,1.495
		c0.781,6.695,1.145,13.512,1.078,20.464c-0.067,6.965-0.956,13.768-2.681,20.464c1.859,0.768,3.314,1.778,4.378,2.991
		c1.051,1.226,1.644,2.789,1.778,4.688C826.269,626.735,826.013,627.059,825.474,627.288z M812.487,512.778
		c2.061-0.808,4.055-1.724,6.008-2.748c2.317-1.186,4.351,2.304,2.048,3.489c-2.277,1.185-4.607,2.223-6.978,3.166
		c-1.024,0.391-2.223-0.445-2.492-1.415C810.763,514.139,811.477,513.182,812.487,512.778z M825.986,509.222
		c-0.431,1.01-1.913,1.226-2.762,0.727c-1.024-0.593-1.159-1.765-0.727-2.762c0.714-1.657,1.226-3.476,1.455-5.267
		c0.148-1.091,0.808-2.021,2.021-2.021c0.997,0,2.169,0.93,2.021,2.021C827.656,504.48,827.01,506.851,825.986,509.222z
		 M863.949,414.408c-0.148,2.196-0.485,4.351-1.01,6.453c-0.525,2.088-1.037,3.813-1.509,5.187
		c-1.926,5.335-4.405,10.441-7.49,15.317c-3.058,4.863-6.655,9.08-10.777,12.65c-0.094,0.943-0.148,1.859-0.148,2.748
		c0,0.889-0.054,1.805-0.148,2.748h0.148c0.768,0.835,1.563,1.697,2.371,2.587c0.822,0.889,1.711,1.711,2.667,2.438
		c2.115,1.576,4.082,2.102,5.887,1.576c1.832-0.525,3.705-1.522,5.631-2.991c0.269-0.202,0.728-0.337,1.347-0.391
		c0.633-0.054,1.213,0,1.738,0.162c0.525,0.148,0.916,0.364,1.145,0.62c0.242,0.269,0.162,0.606-0.216,1.024
		c-2.681,2.411-5.321,3.853-7.908,4.324c-2.587,0.472-5.133,0.175-7.625-0.862c2.492,4.284,4.621,8.743,6.399,13.351
		c1.778,4.607,2.762,9.376,2.95,14.307c0.094,1.563,0.04,3.476-0.148,5.739c-0.189,2.25-0.566,4.473-1.145,6.669
		c-0.566,2.196-1.441,4.136-2.587,5.82c-1.159,1.671-2.64,2.667-4.459,2.977c-1.347,0.216-2.492,0.108-3.449-0.31
		c-0.97-0.418-1.832-1.078-2.6-1.967c-0.768-0.889-1.414-1.913-1.94-3.058c-0.525-1.159-0.93-2.358-1.226-3.61
		c-2.102-8.177-3.476-16.691-4.095-25.542c-0.364-5.173-0.512-10.265-0.498-15.277c-0.647,0.323-1.28,0.674-1.953,0.983
		c-2.155,0.997-4.324,1.59-6.547,1.805c-0.849,2.506-2.061,4.863-3.583,7.059c-1.536,2.209-3.557,3.678-6.049,4.405
		c-2.883,0.943-5.658,0.862-8.353-0.242c-2.681-1.091-4.648-3.26-5.901-6.507c-1.334-3.678-1.9-7.571-1.711-11.707
		c0.189-4.136,1.347-7.881,3.449-11.249c0.674-1.145,1.509-2.209,2.519-3.206s2.129-1.819,3.381-2.438
		c1.334-2.102,3.085-3.583,5.241-4.486c2.169-0.889,4.297-0.283,6.413,1.805c2.681,2.627,4.5,5.955,5.469,9.983
		c0.956,4.028,1.091,7.935,0.431,11.707c-0.202,0.525-0.391,1.307-0.579,2.358c1.63-0.31,3.206-0.889,4.742-1.724
		c1.064-0.579,2.075-1.172,3.045-1.751c0.054-2.479,0.135-4.931,0.269-7.369c0.377-7.127,1.293-14.347,2.735-21.676
		c1.441-7.342,3.678-14.145,6.763-20.437c0.674-1.576,1.468-3.139,2.438-4.715c0.957-1.563,2.075-2.91,3.314-4.001
		c1.239-1.105,2.6-1.832,4.095-2.196c1.482-0.377,3.152-0.135,4.958,0.701c1.738,0.835,2.883,2.196,3.462,4.082
		C863.868,410.164,864.097,412.212,863.949,414.408z M859.261,350.255c-1.805-1.792-3.125-3.718-3.907-5.82
		c-0.472-1.186-0.754-2.411-1.078-3.637c-0.216,0.323-0.377,0.579-0.606,0.903c-1.132,1.644-2.438,3.125-3.907,4.446
		c-1.468,1.32-3.139,2.344-5.012,3.072c-1.872,0.741-3.988,0.916-6.359,0.552c-2.155-0.364-3.718-1.307-4.675-2.802
		c-0.97-1.509-1.563-3.314-1.778-5.402c-0.242,0.364-0.458,0.687-0.674,0.957c-0.242,0.269-0.458,0.593-0.687,0.956
		c-1.01,1.28-2.115,2.506-3.314,3.691c-1.185,1.186-2.479,2.129-3.907,2.802c-1.401,0.687-2.964,1.051-4.661,1.091
		c-1.684,0.054-3.57-0.377-5.604-1.293c-2.263-0.997-3.907-2.627-4.917-4.863c-1.024-2.223-1.522-4.621-1.522-7.167
		c0-2.56,0.418-5.038,1.266-7.463c0.849-2.411,1.94-4.351,3.314-5.806c1.347-1.549,2.991-2.708,4.917-3.489
		c1.913-0.768,3.88-1.145,5.86-1.091c1.967,0.04,3.839,0.525,5.604,1.428c1.738,0.916,3.139,2.29,4.163,4.109
		c0.216,0.458-0.189,0.7-1.199,0.754c-1.01,0.04-1.644-0.067-1.873-0.35c-0.445-0.539-1.091-1.159-1.953-1.846
		c-0.835-0.687-1.778-1.186-2.802-1.495c-1.01-0.323-1.967-0.391-2.883-0.216c-0.903,0.189-1.684,0.822-2.371,1.913
		c-0.337,0.741-0.66,1.441-0.93,2.129c-0.296,0.687-0.539,1.388-0.754,2.115c-0.458,1.549-0.781,3.085-0.943,4.58
		c-0.175,1.509-0.256,3.031-0.256,4.594c0,1.455,0.121,2.869,0.337,4.23c0.216,1.374,0.674,2.694,1.347,3.974
		c0.808,1.455,1.428,2.155,1.886,2.115c0.445-0.04,1.347-0.566,2.708-1.576c2.479-1.913,4.473-4.082,5.941-6.493
		c1.468-2.411,2.883-4.809,4.244-7.18c0.229-1.724,0.498-3.328,0.849-4.783c0.35-1.455,0.62-2.64,0.849-3.556
		c0.108-0.552,0.566-0.957,1.361-1.239c0.795-0.269,1.657-0.404,2.627-0.404s1.832,0.135,2.64,0.404
		c0.781,0.283,1.186,0.687,1.186,1.239c0,3.274-0.35,6.615-1.024,9.982c-0.674,3.368-0.512,6.695,0.512,9.983
		c0.216,0.539,0.418,1.212,0.593,1.98c0.162,0.768,0.647,0.849,1.441,0.202c0.903-0.633,1.697-1.266,2.371-1.913
		c0.674-0.633,1.374-1.32,2.048-2.048c0.903-1.01,1.778-1.967,2.627-2.869c0.849-0.916,1.724-1.873,2.641-2.883
		c0.04-0.081,0.283-0.121,0.418-0.189c-0.175-1.266-0.404-2.533-0.445-3.839c-0.108-4.055-0.054-8.002,0.175-11.828
		c0.229-2.829,0.512-5.631,0.849-8.406c0.337-2.789,0.795-5.591,1.361-8.42c0.108-0.633,0.189-1.28,0.256-1.913
		c0.054-0.633,0.202-1.32,0.418-2.048c-3.166,0.175-6.291,0.364-9.417,0.539c-3.112,0.189-6.197,0.323-9.242,0.418
		c-0.458,0-0.943-0.094-1.455-0.269c-0.512-0.189-0.889-0.391-1.185-0.62c-0.269-0.229-0.364-0.458-0.243-0.687
		c0.108-0.229,0.566-0.431,1.347-0.62c3.395-0.728,6.83-1.293,10.265-1.711c3.449-0.404,6.938-0.754,10.441-1.024
		c0.35-1.643,0.781-3.26,1.374-4.85c0.552-1.603,1.401-3.031,2.533-4.311c0.229-0.269,0.62-0.485,1.186-0.62
		c0.566-0.135,1.159-0.202,1.792-0.202c0.62,0,1.186,0.121,1.697,0.337c0.512,0.229,0.808,0.539,0.916,0.889
		c0.35,1.28,0.431,2.6,0.269,3.974c-0.175,1.374-0.431,2.789-0.768,4.244c3.624-0.189,7.302-0.391,11.033-0.62
		c3.745-0.229,7.409-0.485,11.033-0.754c0.903-0.081,1.751,0,2.546,0.269c0.781,0.283,1.374,0.606,1.778,0.956
		c0.404,0.377,0.458,0.741,0.175,1.105c-0.283,0.364-1.105,0.593-2.465,0.687c-4.19,0.35-8.379,0.728-12.556,1.091
		c-4.19,0.364-8.433,0.728-12.744,1.091c-0.108,0.458-0.216,0.93-0.323,1.441c-0.108,0.498-0.242,0.97-0.35,1.428
		c-0.337,2.007-0.647,4.015-0.93,6.022c-0.283,2.007-0.539,4.055-0.768,6.157c-0.445,3.556-0.727,7.127-0.849,10.723
		c-0.108,3.61,0,7.194,0.35,10.75c0.108,1.819,0.337,4.028,0.674,6.628c0.337,2.6,1.253,4.715,2.708,6.359
		c0.808,0.822,1.819,0.781,3.058-0.135c1.253-0.916,2.533-2.142,3.826-3.691c1.293-1.549,2.506-3.125,3.651-4.729
		c1.132-1.59,1.859-2.654,2.209-3.206c0.108-0.269,0.445-0.458,1.024-0.552c0.566-0.081,1.105-0.081,1.59,0
		c0.512,0.094,0.943,0.229,1.293,0.418c0.323,0.175,0.445,0.404,0.323,0.687c-0.781,1.28-1.643,2.708-2.533,4.297
		c-0.916,1.603-1.967,3.125-3.152,4.594c-1.186,1.455-2.519,2.708-3.974,3.759c-1.482,1.051-3.233,1.711-5.268,1.98
		C863.612,352.734,861.066,352.02,859.261,350.255z M927.091,373.332c-0.108,0.121-0.269,0.202-0.445,0.216
		c-0.04,0-3.449,0.31-8.447,0.525c-2.573,0.108-5.564,0.216-8.649,0.269c-0.539,0.013-1.078,0.027-1.63,0.04
		c-1.051,0.013-2.142,0.04-3.247,0.04l-1.563,0.013c0.445,0.444,0.889,0.903,1.32,1.361c0.256,0.269,0.525,0.552,0.795,0.822
		c1.414,1.482,2.789,2.937,3.961,4.217c2.263,2.479,3.732,4.23,3.745,4.244c0.242,0.296,0.229,0.714-0.04,0.983
		c-0.269,0.269-0.687,0.283-0.983,0.04c-0.013-0.013-1.765-1.482-4.244-3.745c-1.28-1.172-2.748-2.546-4.217-3.961
		c-0.269-0.256-0.539-0.512-0.808-0.781c-0.458-0.431-0.916-0.876-1.374-1.334l-0.013,1.576c0,1.064-0.027,2.142-0.04,3.179
		c-0.013,0.566-0.027,1.132-0.04,1.684c-0.054,3.058-0.148,6.035-0.269,8.649c-0.216,5.012-0.525,8.42-0.525,8.447
		c-0.04,0.377-0.35,0.66-0.728,0.66c-0.377,0-0.687-0.283-0.714-0.66c-0.013-0.027-0.31-3.435-0.525-8.447
		c-0.121-2.64-0.216-5.631-0.283-8.649c0-0.539-0.013-1.091-0.027-1.657c-0.027-1.037-0.04-2.129-0.04-3.22l-0.013-1.563
		c-0.472,0.458-0.93,0.916-1.401,1.361c-0.256,0.243-0.525,0.499-0.781,0.755c-1.468,1.401-2.923,2.775-4.23,3.961
		c-2.465,2.263-4.23,3.732-4.244,3.745c-0.283,0.242-0.714,0.229-0.97-0.04c-0.269-0.269-0.296-0.687-0.054-0.97
		c0.013-0.027,1.482-1.778,3.759-4.257c1.172-1.293,2.546-2.748,3.961-4.217c0.269-0.283,0.552-0.579,0.835-0.862
		c0.418-0.445,0.835-0.889,1.266-1.32l-1.563-0.013c-1.064,0-2.115-0.027-3.152-0.04c-0.579-0.013-1.145-0.027-1.711-0.04
		c-3.072-0.054-6.062-0.148-8.649-0.269c-5.012-0.216-8.42-0.525-8.447-0.525c-0.377-0.027-0.66-0.35-0.66-0.727
		c0-0.364,0.283-0.687,0.66-0.714c0.027,0,3.435-0.31,8.447-0.525c2.667-0.121,5.645-0.216,8.635-0.283
		c0.552,0,1.105-0.013,1.657-0.027c1.051-0.027,2.142-0.04,3.22-0.04l1.576-0.013c-0.471-0.458-0.916-0.93-1.361-1.388
		c-0.256-0.269-0.498-0.539-0.754-0.795c-1.401-1.455-2.775-2.91-3.961-4.217c-2.263-2.479-3.745-4.23-3.759-4.257
		c-0.229-0.283-0.216-0.714,0.054-0.97c0.256-0.269,0.687-0.283,0.97-0.04c0.013,0.013,1.778,1.482,4.257,3.745
		c1.293,1.199,2.762,2.56,4.217,3.961c0.269,0.256,0.539,0.525,0.822,0.795c0.444,0.431,0.903,0.862,1.361,1.32l0.013-1.576
		c0-1.064,0.013-2.128,0.04-3.152c0.013-0.579,0.027-1.145,0.027-1.711c0.067-3.045,0.162-6.035,0.283-8.649
		c0.216-5.012,0.512-8.42,0.525-8.447c0.027-0.377,0.337-0.66,0.714-0.66c0.377,0,0.687,0.283,0.728,0.66
		c0,0.027,0.31,3.435,0.512,8.447c0.121,2.56,0.216,5.55,0.283,8.635c0.013,0.566,0.027,1.118,0.027,1.684
		c0.027,1.037,0.054,2.115,0.054,3.193l0.013,1.576c0.458-0.458,0.93-0.916,1.388-1.361c0.269-0.256,0.525-0.498,0.795-0.754
		c1.442-1.388,2.91-2.762,4.217-3.961c2.479-2.263,4.23-3.732,4.244-3.745c0.296-0.242,0.714-0.229,0.983,0.04
		c0.269,0.269,0.283,0.687,0.04,0.97c-0.013,0.027-1.482,1.778-3.759,4.257c-1.186,1.293-2.546,2.762-3.947,4.217
		c-0.269,0.269-0.525,0.539-0.795,0.822c-0.431,0.445-0.876,0.903-1.32,1.361l1.563,0.013c1.064,0,2.129,0.027,3.139,0.04
		c0.593,0.013,1.172,0.027,1.738,0.04c3.099,0.054,6.089,0.148,8.649,0.269c5.011,0.216,8.406,0.525,8.447,0.525
		c0.377,0.027,0.66,0.35,0.66,0.714C927.307,373.022,927.226,373.211,927.091,373.332z M920.692,178.477
		c-3.449-0.512-6.911-0.849-10.4-1.078c-2.587-0.162-2.6-4.203,0-4.042c3.853,0.242,7.665,0.66,11.478,1.226
		C924.343,174.961,923.238,178.855,920.692,178.477z M923.818,219.027c-1.832,1.064-3.691,2.048-5.618,2.923
		c-0.997,0.458-2.169,0.296-2.762-0.728c-0.512-0.876-0.269-2.304,0.727-2.762c1.913-0.876,3.786-1.859,5.604-2.923
		C924.02,214.204,926.054,217.707,923.818,219.027z M938.663,205.96c-1.253,1.724-2.64,3.327-4.203,4.769
		c-1.913,1.765-4.782-1.091-2.856-2.856c1.307-1.212,2.519-2.519,3.57-3.947c0.66-0.889,1.751-1.334,2.775-0.728
		C938.812,203.71,939.31,205.084,938.663,205.96z M931.443,180.754c0.795-0.795,2.061-0.741,2.87,0
		c0.781,0.727,1.563,1.455,2.358,2.182c0.795,0.754,0.741,2.115,0,2.856c-0.795,0.795-2.061,0.754-2.869,0
		c-0.781-0.727-1.563-1.455-2.358-2.182C930.648,182.869,930.702,181.509,931.443,180.754z M941.951,197.176
		c-0.067,1.105-0.889,2.021-2.021,2.021c-1.051,0-2.088-0.93-2.021-2.021c0.067-1.401,0.027-2.802-0.148-4.203
		c-0.148-1.091,1.024-2.021,2.021-2.021c1.185,0,1.886,0.943,2.021,2.021C941.977,194.374,942.018,195.775,941.951,197.176z
		 M951.286,116.184c-0.162,0.148-0.364,0.242-0.579,0.269c-0.054,0-4.459,0.391-10.926,0.66c-3.314,0.162-7.18,0.283-11.168,0.364
		c-0.7,0.013-1.401,0.027-2.102,0.04c-1.361,0.027-2.775,0.054-4.203,0.067l-2.021,0.013c0.579,0.579,1.145,1.172,1.697,1.751
		c0.35,0.364,0.687,0.714,1.024,1.064c1.846,1.913,3.61,3.799,5.119,5.456c2.937,3.193,4.836,5.47,4.85,5.483
		c0.323,0.377,0.296,0.93-0.054,1.266c-0.337,0.35-0.889,0.377-1.266,0.067c-0.013-0.027-2.29-1.926-5.483-4.863
		c-1.657-1.509-3.543-3.274-5.456-5.106c-0.337-0.337-0.687-0.674-1.037-1.01c-0.593-0.566-1.186-1.132-1.778-1.724l-0.013,2.034
		c0,1.388-0.04,2.762-0.067,4.109c-0.013,0.727-0.027,1.455-0.04,2.182c-0.081,3.947-0.202,7.8-0.35,11.168
		c-0.283,6.48-0.674,10.885-0.674,10.926c-0.054,0.485-0.458,0.849-0.943,0.849c-0.485,0-0.889-0.364-0.93-0.849
		c0-0.04-0.404-4.446-0.674-10.926c-0.162-3.408-0.283-7.275-0.364-11.168c-0.013-0.701-0.027-1.415-0.04-2.142
		c-0.027-1.347-0.054-2.748-0.054-4.163l-0.013-2.021c-0.593,0.593-1.199,1.172-1.805,1.751c-0.337,0.323-0.687,0.66-1.01,0.983
		c-1.9,1.819-3.786,3.584-5.469,5.119c-3.179,2.923-5.456,4.823-5.483,4.85c-0.364,0.31-0.916,0.283-1.266-0.067
		c-0.337-0.337-0.364-0.889-0.054-1.253c0.027-0.027,1.913-2.304,4.85-5.496c1.522-1.67,3.301-3.557,5.119-5.456
		c0.35-0.364,0.714-0.741,1.078-1.118c0.539-0.566,1.091-1.132,1.644-1.697l-2.021-0.013c-1.374,0-2.748-0.027-4.068-0.054
		c-0.754-0.027-1.495-0.04-2.223-0.054c-3.974-0.067-7.827-0.202-11.182-0.35c-6.466-0.283-10.872-0.674-10.912-0.674
		c-0.485-0.04-0.849-0.458-0.849-0.943s0.364-0.889,0.849-0.93c0.04,0,4.446-0.391,10.912-0.674
		c3.449-0.162,7.315-0.283,11.168-0.364c0.714,0,1.428-0.013,2.142-0.04c1.361-0.027,2.762-0.054,4.163-0.054l2.021-0.013
		c-0.593-0.593-1.172-1.199-1.738-1.805c-0.337-0.337-0.66-0.674-0.983-1.01c-1.805-1.886-3.57-3.772-5.119-5.456
		c-2.923-3.193-4.823-5.47-4.85-5.496c-0.31-0.364-0.283-0.916,0.054-1.253c0.35-0.35,0.903-0.377,1.266-0.067
		c0.027,0.027,2.304,1.926,5.496,4.85c1.684,1.549,3.57,3.314,5.443,5.119c0.35,0.337,0.714,0.674,1.064,1.024
		c0.579,0.552,1.172,1.118,1.765,1.711l0.013-2.034c0-1.374,0.027-2.748,0.054-4.082c0.027-0.741,0.04-1.482,0.04-2.209
		c0.081-3.934,0.216-7.8,0.364-11.182c0.283-6.466,0.674-10.872,0.674-10.912c0.04-0.485,0.445-0.849,0.93-0.849
		c0.485,0,0.889,0.364,0.943,0.849c0,0.04,0.391,4.446,0.66,10.926c0.162,3.314,0.283,7.167,0.364,11.168
		c0.013,0.714,0.027,1.428,0.04,2.155c0.027,1.347,0.054,2.748,0.067,4.136l0.013,2.034c0.593-0.593,1.199-1.172,1.792-1.751
		c0.35-0.323,0.687-0.66,1.024-0.983c1.873-1.805,3.759-3.57,5.456-5.119c3.193-2.923,5.469-4.823,5.483-4.85
		c0.377-0.31,0.93-0.283,1.266,0.067c0.35,0.337,0.364,0.889,0.054,1.253c-0.013,0.027-1.913,2.304-4.85,5.496
		c-1.536,1.684-3.301,3.57-5.106,5.443c-0.35,0.364-0.687,0.714-1.037,1.078c-0.552,0.579-1.118,1.172-1.697,1.751l2.034,0.013
		c1.361,0,2.735,0.027,4.055,0.054c0.754,0.027,1.495,0.04,2.236,0.054c4.001,0.081,7.854,0.202,11.168,0.35
		c6.48,0.283,10.872,0.674,10.926,0.674c0.485,0.04,0.849,0.445,0.849,0.93C951.556,115.78,951.448,116.009,951.286,116.184z"/>
	<path d="M667.2,453.73c-0.408,1.79-0.731,3.638-0.935,5.544c-0.204,1.906-0.272,3.755-0.204,5.545
		c0.068,1.783,0.238,3.456,0.527,5.006c0.272,1.55,0.612,2.743,1.037,3.573c1.394,3.1,3.348,4.919,5.847,5.457
		c2.516,0.539,5.15-0.451,7.938-2.954c1.105-1.07,2.091-2.205,2.924-3.398c0.833-1.186,1.598-2.438,2.294-3.755
		c-4.725-0.829-8.872-2.503-12.425-5.006C670.651,461.239,668.322,457.906,667.2,453.73z"/>
	<path d="M707.458,328.451c0.357-0.598,0.682-1.29,0.996-2.06c0.314-0.776,0.552-1.567,0.736-2.385
		c0.173-0.812,0.238-1.63,0.195-2.448c-0.043-0.812-0.336-1.52-0.866-2.123c-0.53-0.603-1.147-0.666-1.862-0.194
		c-0.703,0.472-1.396,1.137-2.056,1.997c-0.671,0.86-1.266,1.74-1.797,2.642c-0.53,0.902-0.844,1.525-0.931,1.866
		c-0.714,1.546-1.288,3.114-1.732,4.702c-0.444,1.588-0.714,3.203-0.801,4.833C702.977,333.908,705.683,331.628,707.458,328.451z"/>
</g>
</svg>
